<?xml version="1.0" encoding="UTF-8"?>
<!DOCTYPE svg PUBLIC "-//W3C//DTD SVG 1.1//EN" "http://www.w3.org/Graphics/SVG/1.1/DTD/svg11.dtd">
<!-- Creator: CorelDRAW X7 -->
<svg xmlns="http://www.w3.org/2000/svg" xml:space="preserve" width="75.5906in" height="42.5197in" version="1.1" style="shape-rendering:geometricPrecision; text-rendering:geometricPrecision; image-rendering:optimizeQuality; fill-rule:evenodd; clip-rule:evenodd"
viewBox="0 0 75591 42520"
 xmlns:xlink="http://www.w3.org/1999/xlink">
 <defs>
  <style type="text/css">
   <![CDATA[
    .str0 {stroke:#727376;stroke-width:625}
    .fil1 {fill:none}
    .fil2 {fill:none;fill-rule:nonzero}
    .fil0 {fill:#606062}
    .fil96 {fill:url(#id1)}
    .fil66 {fill:url(#id2)}
    .fil98 {fill:url(#id3)}
    .fil85 {fill:url(#id4)}
    .fil61 {fill:url(#id5)}
    .fil100 {fill:url(#id6)}
    .fil106 {fill:url(#id7)}
    .fil112 {fill:url(#id8)}
    .fil52 {fill:url(#id9)}
    .fil46 {fill:url(#id10)}
    .fil91 {fill:url(#id11)}
    .fil32 {fill:url(#id12)}
    .fil107 {fill:url(#id13)}
    .fil20 {fill:url(#id14)}
    .fil24 {fill:url(#id15)}
    .fil88 {fill:url(#id16)}
    .fil12 {fill:url(#id17)}
    .fil62 {fill:url(#id18)}
    .fil55 {fill:url(#id19)}
    .fil15 {fill:url(#id20)}
    .fil45 {fill:url(#id21)}
    .fil59 {fill:url(#id22)}
    .fil11 {fill:url(#id23)}
    .fil33 {fill:url(#id24)}
    .fil18 {fill:url(#id25)}
    .fil53 {fill:url(#id26)}
    .fil42 {fill:url(#id27)}
    .fil34 {fill:url(#id28)}
    .fil82 {fill:url(#id29)}
    .fil104 {fill:url(#id30)}
    .fil56 {fill:url(#id31)}
    .fil54 {fill:url(#id32)}
    .fil50 {fill:url(#id33)}
    .fil39 {fill:url(#id34)}
    .fil16 {fill:url(#id35)}
    .fil67 {fill:url(#id36)}
    .fil40 {fill:url(#id37)}
    .fil17 {fill:url(#id38)}
    .fil111 {fill:url(#id39)}
    .fil6 {fill:url(#id40)}
    .fil78 {fill:url(#id41)}
    .fil93 {fill:url(#id42)}
    .fil74 {fill:url(#id43)}
    .fil92 {fill:url(#id44)}
    .fil87 {fill:url(#id45)}
    .fil8 {fill:url(#id46)}
    .fil35 {fill:url(#id47)}
    .fil108 {fill:url(#id48)}
    .fil90 {fill:url(#id49)}
    .fil94 {fill:url(#id50)}
    .fil51 {fill:url(#id51)}
    .fil102 {fill:url(#id52)}
    .fil86 {fill:url(#id53)}
    .fil22 {fill:url(#id54)}
    .fil10 {fill:url(#id55)}
    .fil23 {fill:url(#id56)}
    .fil76 {fill:url(#id57)}
    .fil80 {fill:url(#id58)}
    .fil89 {fill:url(#id59)}
    .fil57 {fill:url(#id60)}
    .fil65 {fill:url(#id61)}
    .fil70 {fill:url(#id62)}
    .fil60 {fill:url(#id63)}
    .fil49 {fill:url(#id64)}
    .fil37 {fill:url(#id65)}
    .fil25 {fill:url(#id66)}
    .fil68 {fill:url(#id67)}
    .fil3 {fill:url(#id68)}
    .fil13 {fill:url(#id69)}
    .fil14 {fill:url(#id70)}
    .fil58 {fill:url(#id71)}
    .fil75 {fill:url(#id72)}
    .fil5 {fill:url(#id73)}
    .fil64 {fill:url(#id74)}
    .fil36 {fill:url(#id75)}
    .fil72 {fill:url(#id76)}
    .fil71 {fill:url(#id77)}
    .fil81 {fill:url(#id78)}
    .fil69 {fill:url(#id79)}
    .fil97 {fill:url(#id80)}
    .fil41 {fill:url(#id81)}
    .fil84 {fill:url(#id82)}
    .fil21 {fill:url(#id83)}
    .fil44 {fill:url(#id84)}
    .fil47 {fill:url(#id85)}
    .fil31 {fill:url(#id86)}
    .fil7 {fill:url(#id87)}
    .fil79 {fill:url(#id88)}
    .fil63 {fill:url(#id89)}
    .fil4 {fill:url(#id90)}
    .fil27 {fill:url(#id91)}
    .fil9 {fill:url(#id92)}
    .fil26 {fill:url(#id93)}
    .fil43 {fill:url(#id94)}
    .fil110 {fill:url(#id95)}
    .fil103 {fill:url(#id96)}
    .fil101 {fill:url(#id97)}
    .fil95 {fill:url(#id98)}
    .fil19 {fill:url(#id99)}
    .fil105 {fill:url(#id100)}
    .fil73 {fill:url(#id101)}
    .fil30 {fill:url(#id102)}
    .fil109 {fill:url(#id103)}
    .fil48 {fill:url(#id104)}
    .fil38 {fill:url(#id105)}
    .fil99 {fill:url(#id106)}
    .fil83 {fill:url(#id107)}
    .fil77 {fill:url(#id108)}
    .fil28 {fill:url(#id109)}
    .fil29 {fill:url(#id110)}
   ]]>
  </style>
   <clipPath id="id0">
    <path d="M0 0l75591 0 0 42520 -75591 0 0 -42520z"/>
   </clipPath>
  <linearGradient id="id1" gradientUnits="userSpaceOnUse" x1="22580.7" y1="31877.3" x2="22580.7" y2="32024.9">
   <stop offset="0" style="stop-opacity:1; stop-color:#F58634"/>
   <stop offset="1" style="stop-opacity:1; stop-color:white"/>
  </linearGradient>
  <linearGradient id="id2" gradientUnits="userSpaceOnUse" xlink:href="#id1" x1="41433" y1="39562" x2="41433" y2="40098.6">
  </linearGradient>
  <linearGradient id="id3" gradientUnits="userSpaceOnUse" xlink:href="#id1" x1="22085" y1="30161.2" x2="22085" y2="30358.9">
  </linearGradient>
  <linearGradient id="id4" gradientUnits="userSpaceOnUse" xlink:href="#id1" x1="22916" y1="41383.8" x2="22916" y2="41777.8">
  </linearGradient>
  <linearGradient id="id5" gradientUnits="userSpaceOnUse" xlink:href="#id1" x1="59688.1" y1="36313.9" x2="59688.1" y2="36541.7">
  </linearGradient>
  <linearGradient id="id6" gradientUnits="userSpaceOnUse" xlink:href="#id1" x1="15645.4" y1="30979.2" x2="15645.4" y2="31190.3">
  </linearGradient>
  <linearGradient id="id7" gradientUnits="userSpaceOnUse" xlink:href="#id1" x1="15567.2" y1="36061.4" x2="15567.2" y2="36240">
  </linearGradient>
  <linearGradient id="id8" gradientUnits="userSpaceOnUse" xlink:href="#id1" x1="15750.9" y1="41281.1" x2="15750.9" y2="41492.6">
  </linearGradient>
  <linearGradient id="id9" gradientUnits="userSpaceOnUse" xlink:href="#id1" x1="73498" y1="35612.8" x2="73498" y2="35814.6">
  </linearGradient>
  <linearGradient id="id10" gradientUnits="userSpaceOnUse" xlink:href="#id1" x1="73958.9" y1="40965.1" x2="73958.9" y2="41439.6">
  </linearGradient>
  <linearGradient id="id11" gradientUnits="userSpaceOnUse" xlink:href="#id1" x1="22813.9" y1="36103.8" x2="22813.9" y2="36502">
  </linearGradient>
  <linearGradient id="id12" gradientUnits="userSpaceOnUse" xlink:href="#id1" x1="48035.4" y1="40107.7" x2="48035.4" y2="42607.1">
  </linearGradient>
  <linearGradient id="id13" gradientUnits="userSpaceOnUse" xlink:href="#id1" x1="15477.8" y1="36969.3" x2="15477.8" y2="37164.8">
  </linearGradient>
  <linearGradient id="id14" gradientUnits="userSpaceOnUse" xlink:href="#id1" x1="24519.2" y1="22657.8" x2="24519.2" y2="42350.5">
  </linearGradient>
  <linearGradient id="id15" gradientUnits="userSpaceOnUse" xlink:href="#id1" x1="26392.8" y1="22764.6" x2="26392.8" y2="41787.6">
  </linearGradient>
  <linearGradient id="id16" gradientUnits="userSpaceOnUse" xlink:href="#id1" x1="22903.8" y1="39032.3" x2="22903.8" y2="39303.6">
  </linearGradient>
  <linearGradient id="id17" gradientUnits="userSpaceOnUse" xlink:href="#id1" x1="6978.74" y1="34417.7" x2="6978.74" y2="39149.2">
  </linearGradient>
  <linearGradient id="id18" gradientUnits="userSpaceOnUse" xlink:href="#id1" x1="59538.1" y1="35575.2" x2="59538.1" y2="35868.7">
  </linearGradient>
  <linearGradient id="id19" gradientUnits="userSpaceOnUse" xlink:href="#id1" x1="59265.4" y1="41760.6" x2="59265.4" y2="42179.1">
  </linearGradient>
  <linearGradient id="id20" gradientUnits="userSpaceOnUse" xlink:href="#id1" x1="8603.24" y1="34626.7" x2="8603.24" y2="42177.3">
  </linearGradient>
  <linearGradient id="id21" gradientUnits="userSpaceOnUse" xlink:href="#id1" x1="73745" y1="41604.3" x2="73745" y2="42001.2">
  </linearGradient>
  <linearGradient id="id22" gradientUnits="userSpaceOnUse" xlink:href="#id1" x1="59523.5" y1="38076.4" x2="59523.5" y2="38477.1">
  </linearGradient>
  <linearGradient id="id23" gradientUnits="userSpaceOnUse" xlink:href="#id1" x1="6068.91" y1="34304.2" x2="6068.91" y2="38855.3">
  </linearGradient>
  <linearGradient id="id24" gradientUnits="userSpaceOnUse" xlink:href="#id1" x1="48797.5" y1="32652.5" x2="48797.5" y2="39290.2">
  </linearGradient>
  <linearGradient id="id25" gradientUnits="userSpaceOnUse" xlink:href="#id1" x1="10187.8" y1="34681.8" x2="10187.8" y2="42631.7">
  </linearGradient>
  <linearGradient id="id26" gradientUnits="userSpaceOnUse" xlink:href="#id1" x1="73513.1" y1="34725.5" x2="73513.1" y2="34958.3">
  </linearGradient>
  <linearGradient id="id27" gradientUnits="userSpaceOnUse" xlink:href="#id1" x1="63880.2" y1="36464.3" x2="63880.2" y2="42454.2">
  </linearGradient>
  <linearGradient id="id28" gradientUnits="userSpaceOnUse" xlink:href="#id1" x1="49324.8" y1="32765.2" x2="49324.8" y2="39305.1">
  </linearGradient>
  <linearGradient id="id29" gradientUnits="userSpaceOnUse" xlink:href="#id1" x1="32250.3" y1="30471.9" x2="32250.3" y2="30658.2">
  </linearGradient>
  <linearGradient id="id30" gradientUnits="userSpaceOnUse" xlink:href="#id1" x1="15464.3" y1="34446.3" x2="15464.3" y2="34631.2">
  </linearGradient>
  <linearGradient id="id31" gradientUnits="userSpaceOnUse" xlink:href="#id1" x1="59406.1" y1="40999.2" x2="59406.1" y2="41407.4">
  </linearGradient>
  <linearGradient id="id32" gradientUnits="userSpaceOnUse" xlink:href="#id1" x1="73255.6" y1="33671.1" x2="73255.6" y2="33895">
  </linearGradient>
  <linearGradient id="id33" gradientUnits="userSpaceOnUse" xlink:href="#id1" x1="73766.4" y1="37297.2" x2="73766.4" y2="37678">
  </linearGradient>
  <linearGradient id="id34" gradientUnits="userSpaceOnUse" xlink:href="#id1" x1="62631.8" y1="36575.9" x2="62631.8" y2="42164">
  </linearGradient>
  <linearGradient id="id35" gradientUnits="userSpaceOnUse" xlink:href="#id1" x1="9094.28" y1="34307.2" x2="9094.28" y2="42343.7">
  </linearGradient>
  <linearGradient id="id36" gradientUnits="userSpaceOnUse" xlink:href="#id1" x1="41411.8" y1="38775" x2="41411.8" y2="39080.9">
  </linearGradient>
  <linearGradient id="id37" gradientUnits="userSpaceOnUse" xlink:href="#id1" x1="62976" y1="36764.6" x2="62976" y2="42395.1">
  </linearGradient>
  <linearGradient id="id38" gradientUnits="userSpaceOnUse" xlink:href="#id1" x1="9591.99" y1="34962.3" x2="9591.99" y2="42165.6">
  </linearGradient>
  <linearGradient id="id39" gradientUnits="userSpaceOnUse" xlink:href="#id1" x1="15783.4" y1="40297.4" x2="15783.4" y2="40574.4">
  </linearGradient>
  <linearGradient id="id40" gradientUnits="userSpaceOnUse" xlink:href="#id1" x1="41933" y1="35676.6" x2="41933" y2="42599.4">
  </linearGradient>
  <linearGradient id="id41" gradientUnits="userSpaceOnUse" xlink:href="#id1" x1="32919.6" y1="34061.5" x2="32919.6" y2="34352.7">
  </linearGradient>
  <linearGradient id="id42" gradientUnits="userSpaceOnUse" xlink:href="#id1" x1="22687.2" y1="34377.2" x2="22687.2" y2="34745">
  </linearGradient>
  <linearGradient id="id43" gradientUnits="userSpaceOnUse" xlink:href="#id1" x1="33133.3" y1="37712" x2="33133.3" y2="38098.8">
  </linearGradient>
  <linearGradient id="id44" gradientUnits="userSpaceOnUse" xlink:href="#id1" x1="22849.2" y1="35379.6" x2="22849.2" y2="35558.1">
  </linearGradient>
  <linearGradient id="id45" gradientUnits="userSpaceOnUse" xlink:href="#id1" x1="22887.5" y1="39792.9" x2="22887.5" y2="40179.7">
  </linearGradient>
  <linearGradient id="id46" gradientUnits="userSpaceOnUse" xlink:href="#id1" x1="46127.5" y1="22525.4" x2="46127.5" y2="24728.4">
  </linearGradient>
  <linearGradient id="id47" gradientUnits="userSpaceOnUse" xlink:href="#id1" x1="49952.7" y1="32927.1" x2="49952.7" y2="43053.7">
  </linearGradient>
  <linearGradient id="id48" gradientUnits="userSpaceOnUse" xlink:href="#id1" x1="15537.4" y1="37916.1" x2="15537.4" y2="38159.5">
  </linearGradient>
  <linearGradient id="id49" gradientUnits="userSpaceOnUse" xlink:href="#id1" x1="22847.5" y1="37037.9" x2="22847.5" y2="37351.8">
  </linearGradient>
  <linearGradient id="id50" gradientUnits="userSpaceOnUse" xlink:href="#id1" x1="22618.2" y1="33495.8" x2="22618.2" y2="33832.8">
  </linearGradient>
  <linearGradient id="id51" gradientUnits="userSpaceOnUse" xlink:href="#id1" x1="73657.4" y1="36435.1" x2="73657.4" y2="36650.8">
  </linearGradient>
  <linearGradient id="id52" gradientUnits="userSpaceOnUse" xlink:href="#id1" x1="15446.1" y1="32767" x2="15446.1" y2="32911.6">
  </linearGradient>
  <linearGradient id="id53" gradientUnits="userSpaceOnUse" xlink:href="#id1" x1="22815.4" y1="40751.2" x2="22815.4" y2="41056.3">
  </linearGradient>
  <linearGradient id="id54" gradientUnits="userSpaceOnUse" xlink:href="#id1" x1="25384.5" y1="22768.7" x2="25384.5" y2="42010.3">
  </linearGradient>
  <linearGradient id="id55" gradientUnits="userSpaceOnUse" xlink:href="#id1" x1="55578" y1="24622.3" x2="55578" y2="42819.7">
  </linearGradient>
  <linearGradient id="id56" gradientUnits="userSpaceOnUse" xlink:href="#id1" x1="26002.4" y1="23437.6" x2="26002.4" y2="42244.2">
  </linearGradient>
  <linearGradient id="id57" gradientUnits="userSpaceOnUse" xlink:href="#id1" x1="33070.4" y1="35589.5" x2="33070.4" y2="36174.8">
  </linearGradient>
  <linearGradient id="id58" gradientUnits="userSpaceOnUse" xlink:href="#id1" x1="32851.6" y1="32120.6" x2="32851.6" y2="32340.2">
  </linearGradient>
  <linearGradient id="id59" gradientUnits="userSpaceOnUse" xlink:href="#id1" x1="22904.6" y1="38070.8" x2="22904.6" y2="38364">
  </linearGradient>
  <linearGradient id="id60" gradientUnits="userSpaceOnUse" xlink:href="#id1" x1="59444" y1="39961.6" x2="59444" y2="40466.4">
  </linearGradient>
  <linearGradient id="id61" gradientUnits="userSpaceOnUse" xlink:href="#id1" x1="41344.1" y1="40636.3" x2="41344.1" y2="41038.4">
  </linearGradient>
  <linearGradient id="id62" gradientUnits="userSpaceOnUse" xlink:href="#id1" x1="33176.6" y1="41536.7" x2="33176.6" y2="41897.7">
  </linearGradient>
  <linearGradient id="id63" gradientUnits="userSpaceOnUse" xlink:href="#id1" x1="59608.8" y1="37111.7" x2="59608.8" y2="37365.1">
  </linearGradient>
  <linearGradient id="id64" gradientUnits="userSpaceOnUse" xlink:href="#id1" x1="73854.1" y1="38076.1" x2="73854.1" y2="38392">
  </linearGradient>
  <linearGradient id="id65" gradientUnits="userSpaceOnUse" xlink:href="#id1" x1="51089" y1="33081.5" x2="51089" y2="41903.9">
  </linearGradient>
  <linearGradient id="id66" gradientUnits="userSpaceOnUse" xlink:href="#id1" x1="26670.7" y1="22490.8" x2="26670.7" y2="36848.1">
  </linearGradient>
  <linearGradient id="id67" gradientUnits="userSpaceOnUse" xlink:href="#id1" x1="41547" y1="38104" x2="41547" y2="38263.3">
  </linearGradient>
  <linearGradient id="id68" gradientUnits="userSpaceOnUse" xlink:href="#id1" x1="14283.1" y1="29542.4" x2="14283.1" y2="42703.8">
  </linearGradient>
  <linearGradient id="id69" gradientUnits="userSpaceOnUse" xlink:href="#id1" x1="7679.88" y1="34075.4" x2="7679.88" y2="42287.3">
  </linearGradient>
  <linearGradient id="id70" gradientUnits="userSpaceOnUse" xlink:href="#id1" x1="8064.9" y1="34533" x2="8064.9" y2="42283.8">
  </linearGradient>
  <linearGradient id="id71" gradientUnits="userSpaceOnUse" xlink:href="#id1" x1="59554.7" y1="38964.7" x2="59554.7" y2="39432.6">
  </linearGradient>
  <linearGradient id="id72" gradientUnits="userSpaceOnUse" xlink:href="#id1" x1="33036.7" y1="36772" x2="33036.7" y2="37151.8">
  </linearGradient>
  <linearGradient id="id73" gradientUnits="userSpaceOnUse" xlink:href="#id1" x1="42019.2" y1="19595" x2="42019.2" y2="42647.2">
  </linearGradient>
  <linearGradient id="id74" gradientUnits="userSpaceOnUse" xlink:href="#id1" x1="41326.3" y1="41531.6" x2="41326.3" y2="41913.8">
  </linearGradient>
  <linearGradient id="id75" gradientUnits="userSpaceOnUse" xlink:href="#id1" x1="50382.8" y1="32876.9" x2="50382.8" y2="42260.7">
  </linearGradient>
  <linearGradient id="id76" gradientUnits="userSpaceOnUse" xlink:href="#id1" x1="33194.5" y1="39598.1" x2="33194.5" y2="40023.4">
  </linearGradient>
  <linearGradient id="id77" gradientUnits="userSpaceOnUse" xlink:href="#id1" x1="33173.5" y1="40903.4" x2="33173.5" y2="41212.6">
  </linearGradient>
  <linearGradient id="id78" gradientUnits="userSpaceOnUse" xlink:href="#id1" x1="32888.9" y1="31447.8" x2="32888.9" y2="31693.3">
  </linearGradient>
  <linearGradient id="id79" gradientUnits="userSpaceOnUse" xlink:href="#id1" x1="41449.5" y1="36353.1" x2="41449.5" y2="36610.5">
  </linearGradient>
  <linearGradient id="id80" gradientUnits="userSpaceOnUse" xlink:href="#id1" x1="22471.4" y1="31022.2" x2="22471.4" y2="31275.8">
  </linearGradient>
  <linearGradient id="id81" gradientUnits="userSpaceOnUse" xlink:href="#id1" x1="63506.8" y1="36296.6" x2="63506.8" y2="42560.7">
  </linearGradient>
  <linearGradient id="id82" gradientUnits="userSpaceOnUse" xlink:href="#id1" x1="22705.2" y1="42015.7" x2="22705.2" y2="42199.2">
  </linearGradient>
  <linearGradient id="id83" gradientUnits="userSpaceOnUse" xlink:href="#id1" x1="24917.8" y1="22712.6" x2="24917.8" y2="42465">
  </linearGradient>
  <linearGradient id="id84" gradientUnits="userSpaceOnUse" xlink:href="#id1" x1="70164.4" y1="30480.1" x2="70164.4" y2="42801.6">
  </linearGradient>
  <linearGradient id="id85" gradientUnits="userSpaceOnUse" xlink:href="#id1" x1="73888.3" y1="40096.1" x2="73888.3" y2="40415.2">
  </linearGradient>
  <linearGradient id="id86" gradientUnits="userSpaceOnUse" xlink:href="#id1" x1="40319.8" y1="26463" x2="40319.8" y2="34660">
  </linearGradient>
  <linearGradient id="id87" gradientUnits="userSpaceOnUse" xlink:href="#id1" x1="38721.1" y1="25185.6" x2="38721.1" y2="42650.3">
  </linearGradient>
  <linearGradient id="id88" gradientUnits="userSpaceOnUse" xlink:href="#id1" x1="32934.7" y1="32973.5" x2="32934.7" y2="33250.4">
  </linearGradient>
  <linearGradient id="id89" gradientUnits="userSpaceOnUse" xlink:href="#id1" x1="41273.9" y1="42246.4" x2="41273.9" y2="42515.1">
  </linearGradient>
  <linearGradient id="id90" gradientUnits="userSpaceOnUse" xlink:href="#id1" x1="35669" y1="28983.2" x2="35669" y2="42479.7">
  </linearGradient>
  <linearGradient id="id91" gradientUnits="userSpaceOnUse" xlink:href="#id1" x1="30359.9" y1="31822.1" x2="30359.9" y2="42534.6">
  </linearGradient>
  <linearGradient id="id92" gradientUnits="userSpaceOnUse" xlink:href="#id1" x1="57795.1" y1="34646.5" x2="57795.1" y2="42466">
  </linearGradient>
  <linearGradient id="id93" gradientUnits="userSpaceOnUse" xlink:href="#id1" x1="27197.8" y1="22549.4" x2="27197.8" y2="36410.1">
  </linearGradient>
  <linearGradient id="id94" gradientUnits="userSpaceOnUse" xlink:href="#id1" x1="64304.2" y1="36347.6" x2="64304.2" y2="42898.6">
  </linearGradient>
  <linearGradient id="id95" gradientUnits="userSpaceOnUse" xlink:href="#id1" x1="15693.3" y1="39428.6" x2="15693.3" y2="39797.9">
  </linearGradient>
  <linearGradient id="id96" gradientUnits="userSpaceOnUse" xlink:href="#id1" x1="15409.6" y1="33614.6" x2="15409.6" y2="33771.4">
  </linearGradient>
  <linearGradient id="id97" gradientUnits="userSpaceOnUse" xlink:href="#id1" x1="15498.1" y1="31918.9" x2="15498.1" y2="32165">
  </linearGradient>
  <linearGradient id="id98" gradientUnits="userSpaceOnUse" xlink:href="#id1" x1="22615.6" y1="32593" x2="22615.6" y2="32897.3">
  </linearGradient>
  <linearGradient id="id99" gradientUnits="userSpaceOnUse" xlink:href="#id1" x1="17196.4" y1="21520.3" x2="17196.4" y2="42722.3">
  </linearGradient>
  <linearGradient id="id100" gradientUnits="userSpaceOnUse" xlink:href="#id1" x1="15446.3" y1="35330.7" x2="15446.3" y2="35496.6">
  </linearGradient>
  <linearGradient id="id101" gradientUnits="userSpaceOnUse" xlink:href="#id1" x1="33143.9" y1="38664.4" x2="33143.9" y2="39133.5">
  </linearGradient>
  <linearGradient id="id102" gradientUnits="userSpaceOnUse" xlink:href="#id1" x1="38635" y1="26476.6" x2="38635" y2="41956.7">
  </linearGradient>
  <linearGradient id="id103" gradientUnits="userSpaceOnUse" xlink:href="#id1" x1="15610" y1="38673.2" x2="15610" y2="38914.6">
  </linearGradient>
  <linearGradient id="id104" gradientUnits="userSpaceOnUse" xlink:href="#id1" x1="74016.2" y1="38909.3" x2="74016.2" y2="39306">
  </linearGradient>
  <linearGradient id="id105" gradientUnits="userSpaceOnUse" xlink:href="#id1" x1="56221.6" y1="32441.9" x2="56221.6" y2="42502.8">
  </linearGradient>
  <linearGradient id="id106" gradientUnits="userSpaceOnUse" xlink:href="#id1" x1="15389.4" y1="30351.8" x2="15389.4" y2="30590.1">
  </linearGradient>
  <linearGradient id="id107" gradientUnits="userSpaceOnUse" xlink:href="#id1" x1="32327.2" y1="29683.4" x2="32327.2" y2="29864">
  </linearGradient>
  <linearGradient id="id108" gradientUnits="userSpaceOnUse" xlink:href="#id1" x1="32999.8" y1="34811.7" x2="32999.8" y2="35148.8">
  </linearGradient>
  <linearGradient id="id109" gradientUnits="userSpaceOnUse" xlink:href="#id1" x1="37665.1" y1="25858" x2="37665.1" y2="42171.8">
  </linearGradient>
  <linearGradient id="id110" gradientUnits="userSpaceOnUse" xlink:href="#id1" x1="38139.1" y1="26147.9" x2="38139.1" y2="41993.7">
  </linearGradient>
 </defs>
 <g id="Layer_x0020_1">
  <metadata id="CorelCorpID_0Corel-Layer"/>
  <polygon class="fil0" points="0,0 75591,0 75591,42520 0,42520 "/>
  <g style="clip-path:url(#id0)">
   <g id="_2189834650800">
    <g>
     <path id="1" class="fil1 str0" d="M75274 26459c-1586,-256 -3230,-476 -4928,-656 -1216,5906 -6410,10381 -12687,10455 -6271,73 -11562,-4271 -12922,-10137 -1693,223 -3331,485 -4910,781 222,1048 532,2063 927,3036l-2708 1762 2453 4133 2806 -1509c924,1171 1987,2224 3167,3136l-1471 2896 4188 2355 1698 -2741c1357,533 2794,909 4286,1100l177 3308 4807 -56 99 -3312c1471,-223 2882,-626 4210,-1179l1861 2854 4132 -2450 -1619 -3012c1122,-905 2133,-1939 3011,-3082l3133 1589 2353 -4188 -2983 -1846c404,-1036 713,-2119 920,-3237z"/>
     <path class="fil2 str0" d="M48447 25693c424,1118 1061,2162 1916,3129 1816,2058 4057,3154 6716,3283 2671,131 5014,-742 7024,-2612 1256,-1169 2119,-2509 2639,-4018 -2935,-201 -5987,-292 -9125,-255 -3157,36 -6224,201 -9170,473zm37141 1873l0 0c-4283,-2657 -10710,-4635 -18248,-5513 37,-5530 -5764,-10376 -5547,-9615 1989,7004 -1272,8792 -3531,8880 -2198,83 -4579,-2300 -3038,-5818 1540,-3519 1022,-7482 1022,-7482 -205,-2393 -865,-4602 -2955,-6622 0,0 3238,6552 -2266,13361 -2014,2242 -3078,4531 -3190,6867 -11,222 -13,440 -11,657 -7516,1054 -13896,3181 -18115,5938 7256,-2483 17066,-4073 27894,-4200 10827,-126 20674,1234 27985,3547z"/>
     <path class="fil2 str0" d="M58537 19465c-1309,39 -2702,-1825 -1750,-4520 951,-2696 682,-5758 682,-5758 -90,-1700 -413,-3284 -1418,-4758 3549,3731 4806,9088 4876,9401 614,4446 -1148,5596 -2390,5635z"/>
    </g>
    <g>
     <path class="fil3" d="M14302 36106c-18,-2169 37,-4348 -21,-6515 -2,-65 -63,-64 -66,0 -105,2159 -59,4352 -40,6515 20,2171 56,4343 127,6512 3,114 118,115 116,0 -52,-2170 -98,-4340 -116,-6512z"/>
     <path class="fil4" d="M36949 30629c-819,-69 -1638,-58 -2455,53 -4,-547 -9,-1095 -16,-1643 -1,-75 -73,-74 -76,0 -164,4429 -42,8933 120,13359 4,108 114,110 111,0 -115,-3865 -107,-7722 -138,-11585 819,-37 1635,-36 2453,24 87,6 87,-200 1,-208z"/>
     <path class="fil5" d="M44945 19677c-2,-91 -92,-117 -106,-22 -144,976 -250,1967 -292,2967 -10,-26 -27,-47 -54,-47 -415,-8 -828,48 -1241,89 -15,-123 -133,-73 -128,47 -11,30 -9,70 7,93 61,647 90,1288 100,1941 -227,20 -449,22 -676,13 -14,-33 -47,-33 -62,-1 -4,-1 -9,0 -14,-1 -39,-2 -49,96 -9,108 5,1 10,2 15,4 -33,1765 -15,3536 -13,5303 2,1778 -35,3571 19,5348 -604,11 -1208,18 -1812,20 60,-1661 6,-3348 5,-5009 -2,-1729 15,-3462 -24,-5189 -1,-79 -78,-79 -79,0 -36,1727 -15,3460 -14,5189 2,1662 -49,3349 14,5009 -203,1 -406,1 -610,1 5,-1450 -32,-2902 -67,-4350 -36,-1482 -34,-3000 -158,-4471 -1,-17 -17,-18 -17,0 -19,1485 73,2986 102,4471 28,1450 33,2900 63,4350 -206,0 -412,1 -618,1 68,-3011 15,-6037 -111,-9042 -1,-23 -24,-24 -24,0 77,3016 81,6025 63,9042 -9,0 -18,0 -27,0 -32,0 -44,42 -38,78 -14,4 -26,20 -25,49 10,1242 45,2481 27,3723 -9,594 -24,1188 -47,1780 -16,432 -127,1004 -36,1417 11,50 46,75 77,49 10,-8 19,-16 28,-23 23,-20 26,-63 16,-98 -3,-11 -6,-22 -9,-33 -13,-45 -67,-35 -72,15 212,-2234 249,-4573 85,-6830l0 0c469,43 940,70 1412,85 16,37 53,38 70,2 1001,29 2005,1 3002,-71 81,-6 82,-197 0,-194 -358,13 -717,19 -1075,26 49,-1776 5,-3568 2,-5345 -4,-1761 8,-3525 -30,-5285 220,52 451,70 671,46 39,-4 58,-52 59,-98 9,-10 15,-25 16,-45 39,-655 19,-1316 -43,-1967 409,-4 818,5 1226,-48 39,-5 59,-50 61,-96 19,29 61,14 66,-40 65,-759 139,-1512 233,-2262 17,754 32,1508 54,2261 3,108 111,109 109,0 -18,-987 -50,-1973 -71,-2960z"/>
     <path class="fil6" d="M43815 39117c-17,-1125 40,-2278 -25,-3397 -2,-45 -50,-64 -55,-12 -46,454 -73,918 -89,1387 -1224,9 -2457,189 -3680,293 -34,3 -34,84 0,83 1218,-27 2463,-66 3676,-237 -49,1753 75,3577 163,5277 6,118 126,119 120,0 -56,-1130 -94,-2261 -110,-3394z"/>
     <path class="fil7" d="M40468 25547c-681,-111 -1369,-147 -2052,-208 -389,-35 -955,-244 -1357,-71 0,-12 -1,-25 -1,-38 -3,-59 -59,-60 -60,0 0,23 0,46 -1,68 -23,14 -46,28 -68,44 -41,30 -12,134 30,112 12,-6 25,-9 36,-14 -45,2813 56,5647 105,8459 49,2889 107,5779 177,8667 3,112 116,113 114,0 -62,-2889 -122,-5778 -174,-8667 -51,-2823 -35,-5665 -152,-8484 234,-57 511,42 735,69 308,37 615,71 923,104 581,62 1163,146 1745,167 89,3 85,-194 0,-208z"/>
     <path class="fil8" d="M47188 24466c-305,58 -647,253 -676,-324 -23,-456 33,-957 59,-1412 3,-43 -24,-100 -52,-106 -488,-104 -1023,-179 -1497,63 -28,14 -23,76 7,79 342,25 976,-233 1266,105 129,29 166,139 110,329 -7,157 -13,314 -18,471 -10,314 -17,628 -21,942 -1,59 32,102 69,105 260,23 512,7 770,-54 72,-17 56,-212 -17,-198z"/>
     <path class="fil9" d="M57734 34668c-4,-33 -38,-25 -38,8 -7,1284 96,2571 95,3858 0,1292 -72,2571 -116,3860 -2,81 87,102 95,19 124,-1277 149,-2589 145,-3879 -4,-1271 -3,-2619 -181,-3866z"/>
     <path class="fil10" d="M64686 35672c-263,-2 -526,6 -789,19 -132,-2510 -199,-5021 -297,-7534 -2,-51 -32,-73 -57,-65 -6,-13 -15,-23 -28,-25 -1084,-228 -2229,-191 -3320,-72 3,-13 5,-27 7,-40 17,-77 -58,-124 -84,-54 -279,750 -86,1970 -68,2794 27,1256 47,2515 97,3769 -502,26 -1003,47 -1505,48 -76,-772 -142,-1543 -186,-2321 -4,-77 -41,-114 -89,-105 -1356,280 -2659,150 -4012,-25 3,-473 1,-946 -6,-1419 -1,-87 -82,-84 -86,0 -1,6 -1,13 -1,19 -5,-49 -27,-94 -68,-95 -1108,-32 -2216,-52 -3324,-74 -144,-3 -472,-132 -589,92 -141,269 -50,1072 -17,1527 -654,-60 -1310,-103 -1963,-116 -30,-1 -39,42 -30,74 -1,3 -3,4 -3,8 -17,1259 40,2524 70,3781 31,1240 31,2495 106,3730 -257,6 -513,13 -770,23 -125,-4975 -168,-9960 -328,-14932 -2,-75 -76,-76 -76,0 1,4976 167,9964 295,14936 -365,15 -731,32 -1096,56 -21,1 -32,25 -34,50 -7,4 -14,12 -14,29 -14,979 -27,2024 67,2994 6,70 74,47 76,-16 40,-963 -30,-1988 -96,-2948 0,0 1,0 1,0 1030,27 2060,11 3090,-17 21,0 37,-14 47,-34 1,1 1,1 1,2 24,45 46,90 76,126 9,11 18,13 26,12 -112,859 -19,1889 57,2738 10,109 117,76 119,-26 1,1 2,1 2,1 -32,-507 -67,-1014 -82,-1523 -14,-438 6,-886 -46,-1318 -3,-26 -30,-25 -34,0 -23,-36 -50,-65 -76,-95 -11,-12 -22,-12 -31,-4 -5,-41 -24,-76 -59,-76 -340,4 -680,11 -1020,19 12,-1239 -52,-2489 -85,-3727 -33,-1248 -41,-2507 -120,-3751 649,102 1301,176 1953,233 14,18 35,19 50,5 360,31 720,59 1080,81 -87,3376 117,6829 295,10191 6,104 112,106 107,0 -156,-3409 -163,-6839 -337,-10242 15,-56 -3,-138 -56,-144 -355,-42 -712,-79 -1069,-112 3,-243 2,-488 14,-728 -16,-176 -2,-344 43,-505 1,-238 84,-304 248,-196 330,-117 806,24 1143,34 796,23 1592,48 2389,65 34,0 56,-30 65,-68 -107,1920 -79,3875 -78,5800 2,1955 -9,3928 80,5879 4,92 94,94 94,0 6,-1959 -51,-3920 -50,-5879 1,-1448 41,-2900 50,-4350 906,325 1874,375 2798,307 293,-21 962,-355 1180,24 69,119 57,791 71,958 30,353 67,703 109,1052 -242,-1 -485,-7 -728,-19 -50,-3 -47,108 0,116 249,43 501,78 754,103 18,65 73,59 100,9 774,68 1559,44 2318,-125 -1,6 -2,12 -2,19 -52,2699 16,5415 43,8114 1,121 123,121 122,0 -14,-2700 11,-5418 -81,-8114 -2,-39 -20,-59 -39,-61 16,-53 -4,-136 -51,-134 -241,14 -482,27 -722,40 -2,-1094 -28,-2188 -49,-3281 -17,-945 -164,-2122 -6,-3061 1109,15 2221,116 3329,109 3,0 6,-2 9,-3 -2,2491 118,4994 265,7475 -565,32 -1128,94 -1690,194 -17,-13 -41,-4 -49,27 -11,22 -12,53 -4,75 -58,2164 -1,4352 79,6514 4,102 107,104 104,0 -43,-2164 -50,-4332 -109,-6495 559,-64 1119,-107 1679,-131 1,1 1,2 1,3 7,118 127,120 121,0 0,-3 0,-6 -1,-9 260,-10 520,-17 780,-17 78,-1 79,-187 0,-188z"/>
     <path class="fil11" d="M6068 34338c-1,-45 -46,-45 -46,0 -19,1475 -53,3005 42,4473 4,58 59,60 60,0 42,-1478 -26,-2993 -56,-4473z"/>
     <path class="fil12" d="M6987 38900c152,-537 10,-1544 -1,-2133 -14,-773 -26,-1546 -43,-2318 -1,-41 -42,-42 -42,0 3,1544 5,3093 36,4637 2,71 71,90 83,17 9,-55 17,-110 26,-164 9,-53 -44,-93 -59,-39z"/>
     <path class="fil13" d="M7730 34119c0,-58 -57,-58 -58,0 -67,2690 -101,5425 -3,8114 3,72 72,73 73,0 27,-2701 -10,-5412 -12,-8114z"/>
     <path class="fil14" d="M8097 34559c0,-35 -35,-35 -36,0 -53,2533 -135,5143 -39,7673 2,69 66,69 69,0 111,-2528 44,-5139 6,-7673z"/>
     <path class="fil15" d="M8548 34667c-2,-53 -56,-54 -55,0 73,2483 34,4975 109,7455 2,74 72,74 75,0 97,-2462 -21,-4997 -129,-7455z"/>
     <path class="fil16" d="M9210 34337c0,-40 -39,-39 -41,0 -120,2626 -211,5318 -188,7950 0,77 72,75 76,0 136,-2624 161,-5317 153,-7950z"/>
     <path class="fil17" d="M9646 38561c8,-1186 23,-2373 18,-3559 0,-53 -51,-53 -53,0 -26,1186 -33,2373 -47,3559 -14,1177 -80,2387 -22,3560 3,60 56,59 60,0 80,-1171 37,-2382 44,-3560z"/>
     <path class="fil18" d="M10230 34726c-135,2599 -159,5231 -135,7838 0,90 91,91 91,0 16,-2614 72,-5225 103,-7838 1,-60 -56,-58 -59,0z"/>
     <path class="fil19" d="M21012 42203c1,-183 2,-367 1,-551 107,-15 215,-34 320,-61 8,200 15,400 23,600 -115,4 -230,8 -344,12zm-1 -704c-2,-208 -5,-417 -9,-626 101,-1 202,-4 302,-12 7,201 16,402 24,604 -106,13 -212,24 -317,34zm-11 -762c-5,-201 -10,-402 -15,-604 75,-4 150,-7 225,-15 37,-3 38,-88 0,-88 -76,0 -152,1 -228,1 -8,-262 -17,-524 -26,-785 99,-12 196,-29 293,-50 16,515 33,1031 51,1546 -100,-1 -200,-2 -300,-5zm-48 -1624c-7,-202 -14,-403 -22,-604 94,-9 187,-19 280,-35 7,-1 12,-4 16,-8 6,206 13,411 19,617 -98,12 -196,23 -293,30zm-472 3106c-1,-181 -3,-361 -4,-541 142,6 284,2 426,-12 8,181 19,361 30,540 -151,6 -301,10 -452,13zm-12 -1377c134,17 269,27 403,30 7,213 16,425 25,637 -141,12 -281,20 -422,25 -2,-231 -3,-461 -6,-692zm-8 -704c130,6 260,7 390,4 5,197 10,394 16,591 -133,-5 -266,-12 -399,-20 -3,-191 -5,-383 -7,-575zm-12 -877c128,7 256,5 384,-5 4,259 10,517 15,776 -129,0 -259,0 -389,-1 -3,-257 -6,-513 -10,-770zm-11 -722c128,-2 255,-7 382,-17 4,199 7,398 11,597 -128,7 -256,9 -384,8 -3,-196 -6,-392 -9,-588zm-17 -973c127,-7 255,-17 382,-30 6,281 10,564 15,846 -127,7 -255,15 -382,23 -5,-280 -10,-559 -15,-839zm-3 -142c-3,-169 -6,-337 -9,-505 126,1 253,-6 379,-21 2,67 4,135 5,201 3,99 5,197 7,296 -127,6 -255,16 -382,29zm-27 -1366c125,8 250,13 374,12 7,234 13,468 19,701 -126,14 -252,25 -378,31 -5,-248 -9,-496 -15,-744zm-290 6160c-5,-193 -10,-386 -15,-578 98,15 197,25 296,32 7,183 16,366 24,548 -101,2 -203,-1 -305,-2zm-38 -1448c96,22 192,40 288,55 8,238 17,475 26,712 -97,2 -195,0 -294,-2 -6,-255 -13,-510 -20,-765zm-17 -661c94,9 188,16 282,21 6,192 13,384 19,576 -95,-7 -190,-15 -286,-23 -5,-192 -10,-383 -15,-574zm-24 -900c94,19 189,33 283,42 7,260 13,519 20,778 -93,-1 -187,-3 -281,-7 -7,-271 -15,-542 -22,-813zm-17 -672c95,2 190,2 285,2 4,195 8,389 13,584 -94,-4 -189,-9 -283,-17 -5,-189 -10,-379 -15,-569zm-25 -965c98,2 195,3 294,0 4,280 9,560 14,840 -95,5 -191,9 -286,12 -7,-284 -15,-568 -22,-852zm-17 -685c101,13 201,23 302,28 2,175 5,350 7,525 -99,13 -196,28 -294,46 -5,-200 -10,-399 -15,-599zm-21 -870c104,12 209,23 315,32 1,253 5,506 7,758 -101,2 -201,1 -303,-4 -6,-262 -13,-524 -19,-786zm-19 -760c110,11 220,19 331,24 0,217 1,434 2,652 -105,-2 -211,-6 -317,-11 -5,-221 -11,-443 -16,-665zm-21 -840c97,15 220,22 352,22 0,237 0,474 0,710 -111,1 -223,-2 -334,-8 -6,-241 -12,-483 -18,-724zm-26 -1033c128,-2 255,-5 383,-8 -2,303 -3,606 -4,910 -17,-1 -34,0 -51,0 -80,-1 -202,-26 -306,-20 -7,-294 -14,-588 -22,-882zm-22 -881c136,10 273,18 411,26 -2,242 -3,484 -5,727 -129,11 -258,23 -386,36 -7,-263 -13,-526 -20,-789zm833 41c2,228 6,455 9,682 -121,5 -243,13 -365,23 -5,-239 -10,-478 -15,-717 124,7 248,11 371,12zm30 1738c-121,1 -242,2 -363,3 -7,-304 -13,-608 -20,-912 122,-4 243,-10 364,-19 5,309 11,618 19,928zm23 854c-123,7 -245,12 -367,14 -6,-237 -10,-474 -16,-711 122,-2 247,-7 364,-14 5,237 12,474 19,711zm22 800c-125,0 -249,-1 -373,-2 -5,-216 -9,-433 -14,-649 123,3 246,0 369,-7 6,220 12,438 18,658zm373 -1543c2,238 8,477 11,715 -104,8 -208,17 -311,23 -6,-237 -12,-475 -18,-713 132,-9 245,-19 318,-25zm27 1546c-102,-1 -205,-3 -307,-3 -5,-222 -11,-442 -17,-664 104,-8 207,-21 310,-38 4,235 10,470 14,705zm17 779c-101,16 -202,31 -303,43 -6,-231 -12,-461 -18,-692 103,-3 205,-10 306,-21 5,223 10,447 15,670zm17 667c-100,0 -201,1 -303,4 -3,-96 -6,-193 -9,-290 -2,-70 -3,-141 -5,-212 102,-16 203,-38 303,-66 4,188 9,376 14,564zm28 985c-4,-2 -8,-4 -13,-4 -95,2 -189,7 -284,12 -11,-284 -20,-568 -30,-852 102,-12 202,-26 301,-42 8,296 18,591 26,886zm-10738 -6653c-161,16 -322,29 -482,47 -35,4 -35,84 0,83 160,-8 321,-18 481,-28 -3,310 -5,620 -3,928 -155,6 -310,12 -464,18 -137,-497 -17,-1578 -18,-2044 -1,-412 -2,-824 -5,-1236 62,-13 124,-25 186,-38 5,-1 8,-5 11,-11 92,18 205,36 194,36 53,2 107,0 161,-4 -12,346 -24,693 -34,1040 -159,0 -318,-3 -476,-10 -44,-2 -43,98 0,102 155,17 313,34 472,49 -10,356 -18,712 -23,1068zm436 -2284c105,-8 211,-16 317,-24 -2,362 -5,724 -6,1086 -202,7 -405,11 -607,12 1,-349 0,-697 -1,-1045 99,-9 198,-21 297,-29zm760 -58c-17,368 -33,736 -46,1105 -101,4 -202,8 -302,12 -7,-363 -13,-726 -21,-1089 123,-9 246,-19 369,-28zm417 -32c89,-7 178,-13 266,-19 2,375 3,750 4,1126 -218,8 -437,17 -656,26 7,-368 15,-737 23,-1105 121,-10 242,-19 363,-28zm849 -57c-13,383 -24,767 -34,1150 -160,2 -320,6 -481,12 -4,-376 -10,-752 -15,-1128 176,-12 353,-22 530,-34zm519 -38c-31,393 -52,791 -67,1191 -135,-3 -270,-4 -405,-3 6,-385 12,-770 17,-1154 152,-11 303,-22 455,-34zm77 12278c-181,1 -363,3 -544,7 1,-335 0,-671 -2,-1007 164,-26 327,-57 490,-93 16,365 34,730 56,1093zm-557 -2101c156,-37 309,-81 460,-136 10,337 21,675 35,1012 -162,23 -323,47 -485,72 -2,-316 -6,-632 -10,-948zm-14 -1031c151,-38 301,-81 449,-128 6,308 13,617 22,925 -153,19 -306,41 -459,65 -3,-287 -8,-574 -12,-862zm-15 -1179c150,-32 299,-66 448,-102 4,338 8,675 14,1013 -150,39 -299,78 -449,116 -5,-343 -9,-685 -13,-1027zm-2 -162c-3,-258 -6,-515 -8,-772 151,-20 301,-43 450,-67 2,253 4,505 6,758 -149,25 -298,52 -448,81zm389 -3161c14,-3 25,-13 32,-27 5,388 9,776 12,1158 -147,21 -295,44 -442,69 0,-380 3,-760 5,-1140 131,-19 262,-36 393,-60zm27 -2395c-130,-9 -261,-10 -392,-4 3,-274 8,-548 12,-822 135,-18 269,-41 402,-68 -10,297 -18,595 -22,894zm-407 1202c3,-349 8,-698 13,-1047 131,-3 262,-2 392,8 -3,352 -4,703 -2,1055 -134,-7 -269,-13 -403,-16zm404 196c2,291 4,581 7,870 -7,-11 -17,-17 -31,-16 -131,12 -261,26 -392,40 2,-293 7,-586 10,-879 135,-3 271,-8 406,-15zm-424 2520c0,-59 1,-118 1,-177 148,-28 296,-59 444,-91 0,38 0,75 1,113 1,268 4,538 6,807 -150,14 -299,29 -449,47 -2,-233 -3,-466 -3,-699zm-56 -3917c-147,9 -294,23 -441,38 -3,-272 -7,-543 -11,-815 158,-8 315,-22 472,-40 -7,272 -14,545 -20,817zm-333 10046c4,-319 5,-638 5,-957 99,-12 197,-25 296,-39 9,330 19,659 33,988 -111,2 -223,5 -334,8zm-3 -2035c96,-14 191,-31 285,-50 4,312 8,624 15,935 -97,15 -195,30 -292,44 -1,-310 -4,-619 -8,-929zm-13 -1018c97,-19 194,-39 290,-62 1,284 2,568 5,851 -94,16 -189,31 -283,47 -3,-278 -8,-557 -12,-836zm-20 -1187c104,-19 207,-41 311,-63 -1,345 -2,689 -2,1035 -97,23 -194,47 -291,69 -6,-347 -12,-694 -18,-1041zm-15 -970c110,-11 220,-25 330,-39 -1,261 -2,521 -3,783 -105,21 -210,42 -315,65 -5,-270 -8,-539 -12,-809zm-2 -161c-4,-234 -8,-469 -11,-702 0,-51 -1,-102 -1,-153 117,-19 233,-39 350,-61 -1,53 -1,106 -2,158 -1,237 -2,476 -3,714 -111,14 -222,28 -333,44zm-26 -2162c125,-13 250,-27 375,-44 -4,381 -8,762 -10,1143 -118,20 -235,43 -353,65 -4,-388 -8,-776 -12,-1164zm-13 -1095c134,0 268,-1 401,-3 -4,295 -8,591 -12,887 -126,14 -252,28 -378,44 -3,-310 -7,-619 -11,-928zm-2 -224c-4,-337 -8,-673 -12,-1009 145,-13 291,-24 436,-29 -7,347 -13,695 -18,1042 -135,-3 -271,-4 -406,-4zm-572 8867c-17,-302 -30,-605 -44,-907 190,-13 379,-28 569,-48 5,315 12,629 21,943 -182,5 -364,9 -546,12zm-89 -1981c201,-9 402,-25 603,-49 2,310 4,621 9,931 -191,28 -381,54 -572,78 -15,-320 -27,-640 -40,-960zm-34 -969c211,-24 422,-54 633,-91 0,278 1,556 2,835 -202,34 -404,66 -607,94 -11,-279 -19,-559 -28,-838zm-350 2952c1,-295 2,-591 3,-887 106,-4 213,-10 320,-16 17,302 35,603 54,903 -126,2 -252,1 -377,0zm3 -2069c0,-283 -2,-566 -2,-849 76,-6 153,-13 229,-20 11,280 21,560 34,839 -87,11 -174,21 -261,30zm267 91c15,323 29,646 47,968 -104,12 -209,22 -314,33 1,-331 0,-663 0,-994 88,-2 178,-4 267,-7zm0 -6680c232,7 463,11 693,13 2,313 4,625 6,938 -233,29 -466,57 -699,85 -1,-345 -1,-691 0,-1036zm686 -1360c-85,9 -169,18 -254,25 -141,12 -282,25 -423,37 3,-292 9,-584 13,-876 221,6 442,5 661,-4 1,273 2,545 3,818zm6 1149c-230,1 -461,4 -691,11 1,-320 3,-640 6,-961 72,-5 143,-9 214,-14 154,-11 310,-25 466,-39 2,334 3,669 5,1003zm-683 2652c-5,-422 -6,-844 -8,-1266 233,-15 466,-34 699,-57 2,390 5,781 7,1172 -233,46 -466,97 -698,151zm699 -9c0,45 1,90 1,136 2,239 1,479 2,719 -231,35 -461,73 -690,114 -5,-290 -7,-580 -11,-869 233,-30 466,-63 698,-100zm5 1991c0,350 -1,700 0,1050 -212,47 -424,88 -637,126 -12,-356 -21,-711 -30,-1066 222,-33 444,-70 667,-110zm-670 8c-8,-310 -14,-619 -20,-929 229,-17 458,-37 688,-60 0,275 2,550 2,825 -224,51 -448,106 -670,164zm-327 -1864c55,-6 111,-13 167,-20 3,292 7,584 12,876 -12,3 -24,5 -36,7 -34,6 -37,87 0,85 13,-1 26,-2 38,-3 6,317 13,634 22,951 -57,15 -115,29 -172,45 -25,7 -20,72 6,68 56,-7 113,-17 169,-25 10,356 21,712 34,1067 -75,13 -150,26 -225,37 -1,-1029 -7,-2059 -15,-3088zm-14 -1374c59,-3 117,-6 176,-10 -1,430 0,859 4,1288 -56,14 -111,27 -167,40 -3,-439 -8,-878 -13,-1318zm-16 -1204c67,3 134,5 202,7 -5,351 -9,703 -10,1055 -59,7 -118,13 -177,19 -4,-360 -10,-720 -15,-1081zm-18 -1127c80,-5 160,-10 240,-16 -7,319 -14,638 -18,957 -69,2 -138,4 -207,6 -4,-316 -10,-631 -15,-947zm-17 -1050c96,5 193,8 290,11 -10,296 -21,591 -29,887 -82,7 -164,15 -246,22 -4,-307 -10,-613 -15,-920zm-108 930c-205,18 -409,39 -614,59 6,-348 9,-696 10,-1044 201,19 403,35 606,48 0,312 -1,625 -2,937zm-1 1073c-214,7 -428,16 -641,25 12,-309 19,-620 26,-931 205,-12 411,-24 616,-38 0,314 -1,629 -1,944zm23097 -3805c-1278,-56 -2574,-3 -3852,92 0,-7 0,-14 -1,-22 -6,-104 -97,-102 -105,0 0,11 -1,22 -1,32 -38,13 -41,95 -7,114 -38,693 19,1444 99,2131 -590,-47 -1180,-107 -1772,-165 -23,-2 -37,27 -40,58 -20,-23 -55,-11 -55,41 -5,1942 -19,3947 71,5883 -270,13 -539,25 -808,41 -79,-5176 -137,-10358 -275,-15531 -3,-87 -87,-89 -90,-5 -8,-6 -17,-10 -27,-10 -1147,-79 -2347,140 -3483,370 -54,11 -59,138 -3,138 -85,609 -32,1308 -32,1922 0,871 5,1742 9,2613 3,811 6,1622 10,2434 -8,-14 -17,-25 -31,-31 -480,-208 -997,-34 -1489,-5 -584,34 -1167,14 -1752,-31 -201,-16 -383,-98 -484,209 -146,441 -34,1430 -6,1946 -257,4 -514,8 -770,15 -29,-1926 -51,-3853 -73,-5782 78,-26 73,-216 -16,-222 -1195,-71 -2398,-72 -3593,-27 -57,2 -60,119 -14,142 -1,7 -3,14 -3,23 -25,732 -34,1466 -43,2199 -7,517 -153,1612 30,2034 -268,-1 -536,10 -799,41 0,-1 1,-1 1,-2 61,-521 -23,-1179 -90,-1696 -5,-42 -35,-47 -55,-28 12,-65 -11,-147 -69,-149 -1723,-70 -3486,29 -5189,458 -28,7 -34,52 -26,85 -22,14 -40,44 -39,94 56,1747 37,3507 114,5251 -1299,14 -2592,-73 -3894,-144 -15,-11 -34,-13 -50,-3 -1,0 -2,0 -3,0 -54,-3 -66,85 -40,136 -97,1885 -111,3821 -58,5713 -1825,175 -3647,414 -5478,289 -60,-5 -57,129 0,139 5,1 10,2 14,3 16,952 25,1909 88,2857 4,59 60,61 62,0 28,-944 2,-1892 -17,-2837 1143,193 2295,75 3440,-32 640,-60 1281,-110 1921,-168 10,5 21,4 31,-3 502,-46 1003,-95 1503,-161 13,-2 24,-9 33,-18 -44,1049 -60,2113 -52,3164 1,130 129,129 131,0 23,-1080 21,-2176 -13,-3256 -1,-36 -20,-49 -37,-43 -9,-34 -29,-61 -62,-59 -161,9 -321,22 -482,34 -2,-46 -3,-92 -5,-138 8,0 14,1 22,0 6,-30 -7,-55 -24,-64 -48,-1549 -34,-3092 -53,-4643 0,-42 -39,-40 -42,0 -47,827 -46,1662 -42,2491 1,415 7,831 16,1246 4,207 10,415 16,622 -46,199 -27,312 55,341 -24,82 -32,105 -34,151 -301,23 -603,48 -904,77 44,-1883 81,-3775 95,-5658 1637,292 3309,270 4953,167 0,4 -1,7 -1,11 -62,2939 -25,5891 -19,8832 0,138 139,138 139,0 5,-2941 40,-5893 -23,-8832 0,-23 -6,-40 -14,-52 39,-69 21,-205 -55,-200 -48,3 -96,4 -144,7 5,-8 10,-18 10,-32 13,-216 24,-433 33,-650 214,9 430,18 645,27 1,368 -1,736 1,1104 -62,7 -125,14 -187,21 -43,4 -43,105 0,103 63,-3 125,-7 188,-10 7,1800 25,3600 54,5397 -45,4 -90,8 -134,11 -33,2 -34,79 0,79 44,0 90,-1 135,-1 5,335 9,671 15,1006 -38,3 -76,8 -114,12 -31,2 -31,75 0,74 39,-1 77,-3 116,-4 5,294 10,588 16,882 -68,-1 -136,1 -204,0 -33,-1 -33,76 0,78 68,4 137,8 206,11 6,287 12,573 18,859 2,71 72,71 72,0 2,-284 3,-569 5,-853 128,7 257,13 385,19 17,260 35,520 53,780 6,81 89,83 84,0 -15,-259 -28,-518 -42,-777 182,7 363,13 545,15 7,217 14,434 23,650 3,76 75,77 77,0 6,-216 9,-433 12,-650 115,0 230,-1 344,-4 7,145 12,290 20,434 4,77 78,79 79,0 2,-146 2,-291 3,-437 184,-7 369,-18 553,-35 8,122 15,244 23,365 7,89 94,94 93,0 -2,-125 -5,-250 -7,-376 37,-4 75,-6 113,-11 43,-5 45,-104 0,-105 -39,0 -77,1 -116,1 -7,-375 -17,-750 -27,-1125 15,-3 29,-6 44,-9 42,-11 33,-123 -11,-117 -12,2 -24,3 -36,5 -19,-687 -40,-1374 -60,-2061 12,-4 25,-8 37,-12 52,-18 29,-136 -22,-122 -6,1 -13,3 -19,5 -10,-336 -18,-672 -26,-1007 35,-9 69,-16 104,-25 45,-12 35,-131 -11,-124 -32,5 -64,12 -96,17 -6,-252 -11,-504 -16,-755 25,-5 51,-8 76,-13 54,-9 57,-138 0,-133 -26,2 -52,5 -78,7 -3,-212 -6,-423 -8,-635 -8,-841 8,-1687 25,-2535 44,-3 88,-4 132,-7 62,-5 62,-142 0,-147 -43,-3 -86,-5 -129,-7 7,-348 14,-696 20,-1043 96,13 191,30 286,55 66,18 95,-137 28,-157 -104,-30 -208,-49 -312,-63 5,-317 8,-633 8,-949 12,-3 25,-4 36,-7 45,-11 32,-116 -10,-118 -8,0 -17,0 -25,0 0,-402 -6,-802 -17,-1202 119,-10 237,-22 356,-35 -50,420 -69,878 -47,1268 4,61 71,88 77,16 23,-267 20,-539 32,-808 8,-162 20,-324 30,-487 107,-12 214,-26 320,-42 12,106 31,210 58,305 14,47 69,25 65,-26 -9,-99 -21,-196 -33,-292 16,-3 31,-4 46,-7 60,-10 63,-146 0,-146 -21,0 -43,1 -64,2 -16,-129 -30,-258 -35,-392 -3,-53 -54,-54 -55,0 -3,127 -3,261 5,393 -99,2 -197,4 -296,6 4,-77 6,-154 7,-231 0,-38 -35,-44 -42,-9 -15,77 -28,159 -40,242 -130,4 -260,10 -390,17 -2,-65 -3,-130 -5,-194 -2,-30 -33,-41 -36,-8 -7,68 -12,137 -18,205 -156,8 -313,17 -470,29 2,-113 3,-226 5,-338 1,-55 -53,-54 -55,0 -4,114 -7,228 -11,342 -180,13 -360,27 -540,44 -2,-166 -4,-331 -7,-497 0,-45 -45,-45 -45,0 0,167 1,334 2,501 -208,19 -416,40 -623,63 3,-133 6,-265 10,-398 1,-40 -38,-39 -40,0 -7,134 -13,268 -19,403 -128,14 -256,29 -384,44 -7,-334 -14,-667 -22,-1001 -1,-40 -41,-40 -41,0 -3,336 -4,673 -6,1009 -205,25 -411,51 -615,77 -1,-363 -3,-724 -4,-1084 0,-30 -29,-30 -31,0 -12,363 -25,728 -38,1094 -186,24 -372,49 -558,75 -1,-206 -2,-412 -5,-618 -1,-45 -46,-45 -47,0 -3,213 -5,425 -7,638 -14,20 -13,54 0,75 -6,741 -6,1483 -7,2225 -1,279 -83,807 16,1098 0,11 4,21 10,28 18,45 41,84 71,114 21,21 52,-22 36,-55 -7,-14 -13,-32 -19,-49 146,6 293,12 441,18 2,219 6,437 12,655 0,16 5,26 12,33 -286,15 -571,24 -856,28 74,-1738 -2,-3512 -59,-5249 -1,-26 -8,-45 -17,-61 1715,-175 3414,-347 5133,-346 23,0 40,-13 52,-33 2,296 16,592 23,888 6,262 -4,533 39,788 1,5 3,10 5,15 -177,24 -353,55 -522,103 -27,8 -28,79 0,85 825,199 1763,74 2594,3 10,0 18,-4 25,-9 -151,4243 -13,8566 101,12808 4,129 134,130 132,0 -87,-4302 -26,-8618 -140,-12917 -2,-63 -45,-80 -70,-53 -11,-18 -27,-30 -48,-31 -353,-15 -726,-38 -1101,-42 110,-1378 57,-2852 63,-4234 0,-4 -1,-7 -1,-11 1127,83 2261,123 3390,101 -107,5629 83,11295 365,16906 7,131 141,132 135,0 -173,-3658 -259,-7313 -316,-10972 637,67 1284,85 1921,38 4,-1 6,-3 10,-4 -2,4 -3,6 -4,11 -69,905 35,1876 70,2785 34,929 65,1858 91,2788 49,1751 78,3502 100,5254 -57,2 -113,4 -169,6 -8,-208 -16,-417 -24,-625 26,-7 51,-13 76,-22 35,-11 28,-100 -8,-96 -24,4 -48,6 -72,9 -7,-201 -16,-403 -23,-604 32,-4 65,-6 97,-11 39,-5 40,-95 0,-95 -34,0 -67,-1 -101,-1 -19,-527 -36,-1054 -53,-1581 9,-20 8,-50 -2,-69 -24,-766 -46,-1532 -66,-2299 4,-1 8,-2 12,-3 32,-11 26,-95 -8,-89 -2,0 -4,0 -6,1 -6,-224 -12,-447 -18,-671 26,-18 26,-75 -2,-87 -6,-246 -13,-493 -19,-740 17,-27 17,-73 -2,-92 -6,-243 -12,-487 -18,-730 33,-11 32,-83 -2,-90 -18,-850 -36,-1700 -53,-2550 0,-39 -40,-39 -40,0 -1,849 3,1697 13,2545 -107,-4 -214,-6 -321,-6 -9,-313 -18,-625 -30,-937 83,-8 166,-16 248,-28 39,-5 41,-93 0,-94 -84,-2 -168,0 -252,2 -9,-227 -16,-454 -27,-680 106,0 212,-3 317,-11 34,-3 46,-89 8,-98 -108,-24 -220,-40 -333,-49 -9,-197 -19,-393 -31,-589 -1,-25 -26,-26 -26,0 -1,195 -1,390 0,586 -124,-9 -249,-9 -374,-4 -5,-194 -9,-387 -13,-581 -1,-27 -27,-27 -27,0 -3,194 -4,389 -6,583 -140,7 -279,22 -415,40 -6,-226 -11,-452 -17,-678 -2,-51 -51,-51 -52,0 -5,229 -8,460 -11,690 -11,1 -23,3 -34,5 -23,3 -24,55 0,57 11,0 22,1 33,2 -5,270 -7,542 -9,813 -16,16 -17,53 -1,67 -2,295 -2,592 -2,888 -6,-16 -19,-25 -33,-16l-20 13c-11,8 -14,30 -12,46 3,29 26,52 65,70 0,250 2,501 4,752 -44,-4 -88,-5 -133,-9 -42,-5 -42,95 0,101 45,6 89,11 134,17 2,225 5,450 9,675 -34,-1 -33,77 1,81 0,0 0,1 0,1 4,264 12,529 18,794 -31,-3 -62,-5 -93,-8 -26,-3 -24,55 0,60 31,7 63,11 94,17 5,219 13,437 19,656 -2,0 -4,1 -6,1 -20,4 -14,49 4,50 1,0 2,0 3,0 9,287 19,574 29,860 -47,1 -93,3 -140,3 -42,-1 -42,99 0,100 48,1 96,2 143,3 7,187 15,373 23,560 -33,-4 -64,-5 -97,-9 -24,-3 -29,58 -5,65 34,10 70,18 105,26 12,282 26,561 40,841 -46,-2 -92,-3 -138,-6 -29,-1 -28,67 0,70 47,6 94,10 142,15 9,193 19,385 30,578 -10,-1 -19,-2 -28,-3 -23,-2 -29,57 -6,63 12,4 25,6 37,9 14,264 29,528 44,791 -38,-1 -75,-1 -113,-3 -26,-1 -33,64 -6,70 41,9 83,16 125,24 12,198 24,396 37,593 -39,-1 -78,-1 -118,-2 -30,-1 -30,69 0,72 163,18 328,33 494,44 3,60 5,120 8,180 3,64 65,65 65,0 0,-59 -1,-118 -2,-176 153,8 305,11 458,9 1,19 2,38 3,57 4,67 68,70 69,0 0,-19 0,-39 0,-58 117,-4 234,-12 350,-24 1,9 1,17 1,25 5,94 100,95 96,0 -1,-11 -1,-23 -1,-35 55,-7 110,-15 165,-24 1,74 2,149 3,223 1,119 121,120 120,0 -11,-1915 -46,-3830 -97,-5744 -25,-930 -54,-1859 -88,-2788 -32,-865 -12,-1790 -157,-2630 -1,-11 -5,-17 -10,-21 45,-53 33,-187 -39,-188 -357,-7 -715,-6 -1073,-1 4,-505 -74,-1296 116,-1696 27,-276 125,-356 294,-238 69,7 138,13 206,20 206,17 413,28 619,33 781,21 1611,-226 2383,-53 28,6 51,-13 64,-41 4,948 8,1896 12,2844 16,3538 31,7076 47,10615 1,128 130,128 130,0 -16,-3539 -31,-7077 -47,-10615 -7,-1742 -16,-3484 -24,-5226 -4,-871 -7,-1742 -14,-2613 -5,-667 49,-1427 -51,-2088 1142,-94 2311,-114 3446,-319 11,-2 20,-8 28,-15 37,5127 152,10256 248,15381 -285,18 -569,37 -853,59 -16,-9 -35,-7 -50,4 -6,0 -13,1 -19,1 -45,4 -50,98 -13,117 -10,1751 -19,3513 79,5258 2,51 51,53 52,0 19,-1750 -21,-3503 -14,-5255 1163,-4 2326,-50 3489,-104 83,-4 84,-204 0,-201 -552,19 -1104,42 -1656,68 105,-1909 36,-3956 -90,-5860 4,3 7,6 12,7 1036,245 2088,326 3135,343 14,0 25,-6 35,-14 -134,1848 -96,3751 -48,5605 47,1779 96,3612 305,5367 11,93 112,72 107,-23 -79,-1839 -236,-3662 -281,-5507 -45,-1843 13,-3683 -11,-5525 0,-39 -21,-51 -39,-45 -7,-45 -29,-85 -68,-85 -425,-10 -849,-37 -1272,-69 -25,-707 -23,-1424 -59,-2127 1277,62 2571,81 3846,-9 90,-6 91,-213 0,-217z"/>
     <path class="fil20" d="M24370 22690c-2,-43 -44,-43 -44,0 -9,6526 174,13073 300,19596 1,86 88,86 87,0 -88,-6525 -120,-13078 -343,-19596z"/>
     <path class="fil21" d="M24757 22746c1,-45 -44,-44 -46,0 -267,6539 -69,13145 433,19646 7,97 107,98 99,0 -494,-6535 -603,-13074 -486,-19646z"/>
     <path class="fil22" d="M25174 32398c-88,-3204 -39,-6394 39,-9597 1,-43 -40,-42 -43,0 -178,3237 -179,6516 -89,9760 87,3124 209,6333 593,9409 7,62 77,49 73,-15 -206,-3192 -484,-6347 -573,-9557z"/>
     <path class="fil23" d="M25843 23463c-1,-34 -35,-34 -35,0 -36,3155 -33,6314 -20,9469 12,3092 64,6191 339,9257 8,85 105,66 98,-20 -504,-6199 -295,-12474 -382,-18706z"/>
     <path class="fil24" d="M26273 32282c-83,-3161 -65,-6317 -72,-9479 0,-51 -50,-51 -52,0 -107,3205 -61,6437 23,9642 80,3074 118,6270 460,9305 7,58 68,45 67,-13 -72,-3152 -342,-6299 -426,-9455z"/>
     <path class="fil25" d="M26715 22530c2,-53 -50,-52 -53,0 -236,4728 -170,9517 62,14242 5,101 108,102 103,0 -226,-4752 -218,-9483 -112,-14242z"/>
     <path class="fil26" d="M27200 22581c0,-42 -41,-42 -43,0 -139,4565 -71,9182 47,13746 3,110 114,111 112,0 -75,-4582 -61,-9164 -116,-13746z"/>
     <path class="fil27" d="M31313 41748c-3,-179 -5,-358 -8,-537 88,12 177,16 264,10 5,165 10,331 15,496 -91,11 -181,23 -271,31zm137 -6040c3,-1 5,-4 7,-6 3,241 6,482 9,723 -78,1 -156,3 -234,5 -4,-230 -8,-459 -11,-689 77,-10 153,-20 229,-33zm18 883c2,236 6,472 10,708 -76,-12 -154,-20 -233,-23 -4,-229 -8,-456 -11,-684 78,-1 156,0 234,-1zm25 1654c-77,-12 -155,-16 -234,-16 -4,-252 -8,-504 -11,-756 78,0 156,-4 232,-13 4,262 8,523 13,785zm21 961c-80,3 -160,9 -239,16 -5,-275 -9,-550 -13,-825 79,0 157,-5 233,-16 6,275 13,550 19,825zm26 1076c-82,-16 -166,-25 -250,-30 -4,-296 -9,-593 -13,-889 81,-10 160,-25 239,-49 8,323 16,645 24,968zm24 779c-88,-2 -175,-3 -261,-7 -4,-217 -7,-434 -10,-652 84,7 167,9 250,3 6,219 14,437 21,656zm-459 -7259c-159,8 -318,15 -477,23 5,-340 10,-681 16,-1021 163,2 327,3 490,4 -11,330 -21,662 -29,994zm-19 833c-156,-3 -348,42 -472,69 4,-240 8,-480 12,-720 158,-7 316,-18 474,-30 -6,227 -10,454 -14,681zm-426 4617c-5,0 -10,1 -14,4 -10,-297 -20,-594 -29,-892 2,1 4,3 7,3 148,3 302,18 456,26 4,282 11,563 18,844 -145,13 -291,22 -438,15zm-69 -1849c150,28 313,52 476,63 2,256 7,512 10,767 -152,8 -305,23 -453,26 -4,0 -7,2 -10,4 -8,-287 -17,-573 -23,-860zm474 -970c-233,5 -467,9 -700,14 -46,1 -145,14 -267,28 39,-198 55,-423 56,-660 119,-3 239,-6 358,-11 -1,192 -3,385 -3,577 0,78 77,78 78,0 4,-194 7,-388 10,-583 158,-8 315,-21 472,-38 -2,224 -3,449 -4,673zm-539 -1608c-5,267 -9,533 -13,799 -120,8 -240,16 -360,26 -4,-255 -19,-516 -33,-763 20,-2 41,-3 61,-5 94,-7 215,-32 345,-57zm-435 -825c151,-2 302,-8 453,-13 -6,244 -11,489 -16,733 -2,1 -5,1 -8,1 -135,16 -271,33 -406,49 -8,-141 -14,-278 -16,-403 -2,-122 -5,-245 -7,-367zm-22 -1205c171,3 341,5 511,8 -12,342 -22,684 -32,1027 -153,8 -306,16 -460,25 -6,-354 -12,-707 -19,-1060zm544 2014c160,-29 327,-52 470,-39 -5,278 -9,556 -12,834 -157,2 -314,8 -471,16 4,-270 9,-541 13,-811zm-903 1700c2,-20 4,-39 6,-59 4,-49 -36,-66 -49,-21 42,-153 49,-372 40,-611 110,0 220,-1 330,-2 3,222 5,443 8,665 -104,11 -220,23 -335,28zm-74 -1587c130,-8 260,-18 390,-28 3,255 7,510 9,765 -111,9 -222,18 -333,28 -15,-254 -43,-522 -66,-765zm-9 -91c-14,-146 -25,-279 -28,-388 -5,-148 -8,-295 -12,-443 144,1 288,1 432,0 2,260 4,520 6,780 -133,16 -265,33 -398,51zm-264 1667c35,-189 39,-426 26,-682 65,1 131,1 196,1 12,232 24,464 39,695 -95,2 -184,-2 -261,-14zm-54 -1557c80,-4 160,-8 240,-13 8,256 19,513 31,769 -66,5 -132,11 -198,16 -18,-260 -48,-529 -73,-772zm-40 -443c-9,-167 -19,-335 -28,-503 95,2 190,4 285,5 4,281 11,561 20,842 -81,10 -163,22 -244,33 -15,-138 -27,-267 -33,-377zm-96 -1707c116,-1 233,-1 349,-1 -4,365 -3,730 2,1095 -96,4 -193,8 -289,12 -20,-369 -41,-737 -62,-1106zm839 3c0,355 4,710 6,1065 -145,7 -289,15 -434,22 -8,-363 -15,-727 -19,-1091 149,1 298,2 447,4zm1835 8896c-58,3 -115,9 -171,16 0,-166 0,-332 -1,-498 49,-8 97,-19 144,-35 39,-14 29,-103 -10,-106 -45,-2 -89,-3 -134,-4 -2,-1207 -16,-2418 -39,-3629 1,0 2,-1 3,-1 33,-8 32,-91 0,-100 -2,0 -3,0 -5,-1 -34,-1756 -85,-3512 -144,-5256 -2,-46 -47,-47 -47,0 0,1175 4,2355 14,3536 -3,-1 -4,-4 -7,-4 -77,-3 -153,-3 -230,-4 -4,-270 -8,-540 -10,-810 27,9 53,19 77,32 36,21 53,-53 34,-91 -22,-42 -62,-68 -113,-83 -2,-235 -5,-470 -7,-705 47,-4 94,-6 141,-10 60,-6 61,-148 0,-146 -47,2 -94,5 -141,7 -2,-330 -4,-660 -4,-990 61,0 122,1 184,1 51,-1 48,-110 0,-120 -62,-12 -123,-20 -185,-28 0,-158 0,-316 0,-475 0,-40 -40,-40 -41,0 -6,155 -10,311 -16,466 -163,-20 -328,-28 -492,-31 3,-163 4,-327 8,-490 1,-51 -49,-50 -51,0 -6,163 -12,326 -17,489 -112,-1 -224,-1 -335,1 -60,0 -123,0 -187,-1 -4,-200 -8,-400 -13,-600 -1,-41 -41,-41 -41,0 0,199 0,399 1,599 -149,-2 -301,-1 -449,20 -2,-114 -4,-229 -5,-343 0,-28 -28,-28 -28,0 -3,117 -4,233 -6,350 -123,21 -243,57 -353,121 0,-4 0,-8 0,-11 4,-14 3,-28 -3,-39 -17,-287 -33,-573 -53,-860 -3,-45 -49,-48 -47,0 9,290 22,579 34,868 -7,15 -5,36 2,50 16,375 34,750 51,1125 -97,4 -194,9 -291,11 -33,1 -33,76 0,77 98,3 197,4 295,6 3,58 6,116 8,174 12,240 23,481 35,721 -41,6 -82,11 -123,17 -20,3 -21,50 0,49 42,-2 84,-5 126,-8 3,71 6,141 10,211l28 566c-102,8 -205,15 -308,21 -28,2 -28,69 0,69 104,0 209,0 313,1l0 4c1,228 25,452 70,670 -12,-23 -32,-32 -46,-10 -68,-21 -117,-53 -136,-101 -12,-30 -44,-11 -37,25 54,297 347,222 534,197 13,46 62,62 68,0 0,-2 1,-4 1,-6 2,0 5,0 8,0 112,0 224,-1 336,-1 1,41 1,82 2,122 1,69 74,91 82,17l14 -139c307,1 614,0 921,-1 -1,227 0,455 1,683 -164,4 -327,21 -477,42 -2,-73 -4,-145 -5,-218 -2,-88 -86,-87 -89,0 -62,1775 -7,3623 190,5375 10,93 113,73 107,-22 -55,-1036 -104,-2066 -142,-3098 3,2 6,4 10,4 145,12 293,22 442,18 8,291 18,581 29,870 -134,-2 -268,0 -399,-6 -40,-2 -39,92 0,96 133,12 269,34 405,50 9,221 19,440 30,660 -106,-9 -213,-23 -323,-50 -36,-8 -53,74 -15,88 109,42 226,79 345,104 9,189 21,377 32,566 -85,3 -171,1 -259,-13 -44,-6 -43,98 0,106 85,17 176,32 267,41 5,79 9,159 14,237 6,88 92,92 91,0 -1,-76 -3,-153 -4,-229 94,5 189,0 281,-15 19,44 68,39 78,-17 62,-16 124,-38 182,-69 35,-19 32,-108 -9,-105z"/>
     <path class="fil28" d="M37514 25891c-1,-43 -44,-44 -44,0 42,5409 202,10823 322,16230 1,68 69,68 68,0 -103,-5408 -165,-10827 -346,-16230z"/>
     <path class="fil29" d="M38076 34071c-20,-2636 68,-5261 111,-7896 0,-37 -35,-36 -38,0 -164,2615 -171,5272 -157,7896 14,2623 53,5284 256,7891 3,41 44,44 43,0 -71,-2632 -196,-5254 -215,-7891z"/>
     <path class="fil30" d="M38646 26503c1,-35 -34,-35 -35,0 -142,5105 -150,10302 79,15402 3,68 71,70 70,0 -76,-5140 -148,-10259 -114,-15402z"/>
     <path class="fil31" d="M40264 26498c-2,-46 -48,-47 -47,0 64,2707 19,5411 66,8116 1,62 59,60 62,0 151,-2669 57,-5450 -81,-8116z"/>
     <path class="fil32" d="M48771 41907c-12,-131 -23,-261 -33,-392 118,-7 236,-18 353,-32 8,148 17,296 29,443 -107,-45 -228,-40 -349,-19zm-81 -1198c122,-2 244,-4 366,-11 10,215 18,432 29,650 -120,1 -239,1 -359,5 -15,-214 -27,-428 -36,-644zm-299 1267c-15,1 -48,2 -94,3 -12,-150 -23,-300 -33,-450 131,0 262,-2 393,-9 9,134 19,269 32,402 -104,21 -206,47 -298,54zm-137 -602c-14,-221 -25,-443 -32,-666 135,3 271,4 406,3 2,215 9,430 20,644 -131,5 -263,12 -394,19zm-438 610c-5,-106 -8,-210 -10,-247 -5,-72 -9,-145 -14,-218 136,6 273,9 409,10 8,151 18,301 31,451 -107,2 -255,4 -416,4zm-39 -706c-10,-194 -18,-388 -25,-583 141,6 282,10 423,13 3,222 9,445 19,668 -137,7 -273,13 -409,19 -3,-39 -6,-78 -8,-117zm-375 707c-18,-163 -34,-326 -51,-489 128,8 257,15 386,21 2,48 3,96 5,144 5,87 1,206 5,324 -114,0 -232,1 -345,0zm-60 -575c-25,-243 -48,-487 -69,-731 146,5 293,9 440,15 4,235 10,469 19,703 -130,6 -260,10 -390,13zm-317 572c-12,-170 -28,-340 -46,-510 99,7 198,13 297,19 15,166 32,331 52,494 -113,0 -217,-1 -303,-3zm2178 -9c-6,-166 -18,-333 -30,-501 33,-5 66,-8 99,-13 46,-7 49,-113 0,-114 -36,0 -73,2 -109,2 -26,-315 -56,-629 -78,-937 -3,-41 -45,-43 -43,0 3,51 5,103 8,155 -121,-7 -243,-9 -364,-11 -5,-139 -10,-278 -12,-418 0,-38 -37,-37 -38,0 -5,138 -7,277 -7,416 -137,-1 -275,0 -412,3 -1,-48 -4,-96 -5,-144 0,-40 -40,-40 -40,0 0,48 1,96 2,144 -143,3 -285,8 -427,13 -2,-70 -5,-141 -7,-211 -1,-32 -33,-33 -33,0 1,71 3,141 4,212 -149,6 -297,11 -446,16 -6,-77 -13,-153 -19,-230 -3,-39 -42,-41 -41,0 3,77 8,154 11,232 -45,1 -91,3 -136,4 -33,1 -34,80 0,81 47,1 94,3 141,5 12,244 27,489 48,734 -98,2 -197,5 -296,4 -36,-340 -76,-680 -110,-1017 -4,-39 -49,-30 -46,10 45,519 74,1053 131,1572 -87,-2 -141,-5 -140,-10 3,-28 -24,-52 -33,-21 -3,11 -6,22 -9,33 -4,12 -5,29 3,38 48,59 118,94 197,114 9,73 16,146 27,218 6,46 56,37 54,-12 -3,-64 -6,-128 -10,-192 100,14 209,11 313,4 19,142 38,284 61,424 9,55 60,31 54,-23 -15,-136 -30,-271 -45,-407 90,-8 173,-16 233,-15 35,1 70,0 105,0 11,81 30,154 65,203 7,10 19,18 29,12 35,-22 39,-25 50,-81 3,-14 0,-32 -7,-41l-14 -19c-25,-34 -59,18 -37,57 -8,-15 -14,-67 -19,-131 140,0 280,-2 420,-8 6,59 10,117 17,175 3,32 36,47 50,20 46,-89 44,-75 45,-191 0,-4 -1,-5 -2,-7 12,-1 24,-1 36,-1 89,-5 200,-28 315,-45 15,138 32,276 51,413 10,65 67,43 71,-15l9 -128c2,-27 -12,-40 -27,-40 -8,-80 -15,-160 -23,-239 124,-14 247,-13 350,33 7,68 14,136 23,202 6,43 49,32 49,-10 0,-49 -1,-98 -2,-147 9,7 20,12 28,20 41,39 90,-54 53,-104 -27,-35 -55,-63 -85,-86z"/>
     <path class="fil33" d="M48618 32680c-6,-48 -52,-27 -48,20 199,2179 331,4354 402,6551 2,52 54,53 53,0 -25,-2199 -163,-4404 -407,-6571z"/>
     <path class="fil34" d="M49209 32790c-2,-33 -35,-33 -34,0 90,2152 124,4312 228,6462 3,70 72,72 71,0 -26,-2154 -158,-4314 -265,-6462z"/>
     <path class="fil35" d="M49792 32954c-2,-35 -38,-37 -37,1 119,3350 222,6700 331,10051 2,63 65,64 64,0 -27,-3348 -156,-6718 -358,-10052z"/>
     <path class="fil36" d="M50466 37557c-95,-1558 -215,-3111 -347,-4662 -2,-24 -26,-24 -24,0 122,1604 221,3213 306,4823 79,1495 67,3046 224,4524 3,30 32,21 33,-7 57,-1532 -98,-3153 -192,-4678z"/>
     <path class="fil37" d="M50917 33118c-3,-48 -52,-50 -50,0 74,1453 151,2906 208,4360 57,1451 45,2926 147,4369 5,74 74,78 76,0 72,-2872 -176,-5876 -381,-8729z"/>
     <path class="fil38" d="M57082 34880c-137,-9 -275,-13 -413,-13 -5,-376 -24,-746 -63,-1108 162,-10 324,-19 485,-29 -2,383 -5,766 -9,1150zm-19 1852c-145,22 -289,44 -433,65 9,-293 20,-589 28,-886 118,-32 236,-67 353,-108 53,-19 29,-136 -22,-124 -110,27 -218,52 -327,77 6,-240 9,-480 8,-719 138,-9 274,-19 411,-34 -6,576 -12,1152 -18,1729zm-432 4861c-3,-150 -5,-300 -7,-449 -2,-131 -2,-262 -3,-393 145,-20 289,-45 433,-75 4,320 9,640 17,960 -146,-31 -293,-43 -440,-43zm-19 -1746c0,-66 0,-133 0,-200 144,-38 288,-81 429,-134 2,-1 3,-3 4,-3 1,339 3,678 7,1017 -145,17 -289,34 -433,50 -2,-243 -5,-486 -7,-730zm436 -1224c-1,257 -3,514 -3,771 -4,-3 -9,-4 -15,-2 -140,26 -279,54 -419,83 -1,-259 1,-518 1,-776 146,-23 291,-48 436,-76zm-434 -924c0,-40 -1,-80 0,-120 1,-201 5,-406 11,-612 147,-29 293,-62 437,-102 -3,259 -6,518 -8,777 -147,18 -294,37 -440,57zm439 78c-2,232 -4,463 -5,694 -144,18 -289,34 -435,49 0,-215 0,-430 0,-645 148,-27 295,-59 440,-98zm-463 -2005c-224,49 -448,94 -672,131 -6,-278 -13,-556 -20,-834 234,-6 468,-14 702,-27 0,243 -4,486 -10,730zm-32 1036c-207,30 -413,59 -619,85 -6,-278 -12,-557 -17,-835 223,-30 444,-72 664,-129 -8,294 -19,588 -28,879zm-21 901c-194,26 -389,52 -583,77 -1,-85 -2,-171 -3,-256 -3,-154 -6,-308 -9,-462 204,-20 409,-48 611,-86 -7,244 -13,487 -16,727zm-482 3930c0,0 0,-1 0,-1 10,-58 -43,-77 -57,-24 0,-216 -1,-432 -3,-648 0,-53 -1,-106 -1,-159 180,-9 360,-25 539,-46 2,278 5,556 10,834 -162,5 -325,23 -488,44zm-69 -1655c-1,-69 -3,-138 -3,-207 183,-27 365,-63 546,-108 0,306 0,612 2,918 -180,20 -359,39 -539,56 -2,-220 -4,-439 -6,-659zm-17 -1202c188,-20 376,-43 563,-71 -1,260 -3,520 -3,781 -183,37 -366,75 -549,110 -3,-273 -8,-547 -11,-820zm-12 -818c194,-18 387,-41 579,-74 -1,213 -2,426 -3,638 -189,19 -378,38 -567,60 -3,-208 -6,-416 -9,-624zm-620 3755c4,-301 7,-603 10,-905 186,4 373,3 560,-4 2,282 6,564 9,847 -193,26 -386,52 -579,62zm-53 -6771c-176,17 -351,36 -526,53 -8,-389 -26,-777 -55,-1163 198,-3 395,-10 593,-16 -4,375 -8,750 -12,1126zm-8 1042c-169,17 -339,29 -510,35 1,-308 0,-615 -6,-922 174,-9 349,-15 523,-20 -2,302 -6,605 -7,907zm-7 977c-170,16 -341,30 -512,41 3,-301 7,-601 8,-901 169,7 339,9 510,4 -2,285 -5,571 -6,856zm-366 4741c-15,-306 -31,-611 -47,-916 138,9 275,16 413,20 2,303 3,606 5,909 -124,4 -248,1 -371,-13zm-92 -1838c151,-3 303,-9 455,-19 1,282 1,563 3,844 -139,7 -278,11 -417,13 -14,-280 -28,-559 -41,-838zm-38 -1008c164,-5 328,-12 492,-22 1,296 0,591 1,887 -152,22 -305,41 -458,55 -14,-306 -26,-613 -35,-920zm-18 -856c170,1 340,0 511,-4 0,229 -1,459 -1,688 -167,32 -332,71 -494,117 -8,-266 -13,-533 -16,-801zm-2 -574c1,-115 2,-231 3,-347 170,11 341,16 512,16 0,254 -2,508 -2,762 -170,16 -340,27 -511,34 -1,-155 -3,-309 -2,-465zm1065 -3632c5,367 10,733 15,1099 -157,12 -313,26 -470,41 -1,-373 -3,-747 -6,-1120 154,-6 307,-12 461,-20zm-463 6045c180,-12 360,-30 540,-54 3,286 7,573 10,859 -185,17 -371,31 -557,41 3,-281 4,-564 7,-846zm529 -1054c3,276 6,552 9,828 -179,35 -357,66 -537,94 3,-293 4,-586 6,-880 174,-11 348,-25 522,-42zm-519 -792c170,-6 339,-14 509,-27 2,209 5,417 7,626 -174,21 -347,46 -518,75 1,-225 1,-449 2,-674zm482 -2084c-160,26 -320,47 -480,65 -1,-300 -2,-599 -3,-899 157,-4 314,-7 471,-11 4,282 8,564 12,845zm-480 192c161,-7 321,-19 482,-38 4,278 8,556 12,834 -164,20 -329,38 -493,54 1,-283 -1,-567 -1,-850zm1 992c164,-3 330,-10 495,-24 3,241 6,481 9,722 -169,21 -337,40 -506,56 1,-251 1,-503 2,-754zm1186 -3337c29,364 43,733 46,1104 -235,1 -471,12 -706,29 -10,-366 -20,-731 -31,-1097 230,-11 460,-23 691,-36zm1306 -246c-51,1 -101,2 -152,3 -16,-119 -33,-236 -51,-346 -5,-32 -38,-26 -37,7 3,110 8,225 14,341 -167,3 -335,7 -503,13 0,-44 -1,-89 -2,-134 0,-35 -35,-35 -35,0 0,45 -1,91 -1,136 -170,6 -340,14 -510,24 -15,-114 -31,-228 -51,-340 -6,-33 -39,-19 -34,14 15,109 26,219 38,329 -227,13 -453,29 -679,50 -8,-275 -17,-550 -27,-825 -1,-25 -26,-26 -26,0 5,276 8,553 12,830 -154,14 -307,31 -460,50 -3,-403 -7,-805 -12,-1206 -1,-27 -26,-27 -27,0 -8,404 -14,808 -19,1213 -201,25 -401,53 -600,86 -1,0 -1,1 -2,1 -24,-307 -56,-613 -100,-917 -4,-31 -33,-17 -30,12 78,713 114,1431 130,2150 -23,2 -47,5 -70,7 -40,4 -41,98 0,95 24,-1 48,-2 72,-3 6,307 9,614 9,921 -27,1 -54,3 -81,4 -30,0 -30,69 0,71 27,1 54,2 81,3 0,302 -2,604 -4,907 -2,0 -4,0 -6,0 -29,2 -29,68 0,70 2,0 3,0 5,0 -3,273 -5,545 -7,817 -35,2 -70,4 -106,5 -42,1 -42,101 0,101 35,1 70,0 105,1 -2,274 -4,549 -3,823 -8,2 -17,4 -25,7 20,-7 15,-53 -5,-53 -34,0 -69,-1 -103,-1 -37,-1 -37,87 0,86 44,0 89,-2 133,-3 1,308 4,617 12,925 -38,3 -75,7 -113,10 -31,1 -31,74 0,74 38,0 77,-1 115,-2 8,280 18,559 33,838 -2,0 -3,0 -5,0 -31,0 -31,72 0,74 3,1 7,1 10,1 18,304 39,608 70,911 -48,-8 -96,-16 -144,-28 -31,-8 -46,64 -13,75 56,20 112,36 168,50 16,151 32,302 51,453 6,45 54,35 52,-11 -6,-141 -13,-283 -19,-424 122,26 244,41 367,49 0,32 0,64 0,96 1,59 59,59 60,0 0,-31 1,-62 1,-92 193,8 387,-2 582,-16 0,33 1,66 1,99 0,69 65,83 78,16 8,-40 14,-81 22,-122 175,-14 351,-29 527,-38 2,104 3,208 5,312 2,70 76,93 84,18 11,-110 22,-219 34,-329 0,-2 -1,-4 -1,-6 136,-3 272,-1 407,11 6,215 11,430 18,644 2,66 65,66 67,0 6,-211 10,-423 15,-635 48,6 97,13 145,22 49,9 58,-113 12,-130 -51,-20 -102,-36 -153,-50 7,-337 12,-675 15,-1014 22,-5 43,-8 65,-14 47,-11 36,-133 -11,-128 -18,2 -36,5 -53,7 5,-638 4,-1276 -1,-1915 6,-2 12,-2 17,-4 58,-11 61,-150 0,-142 -6,1 -12,2 -18,3 -9,-1154 -28,-2308 -44,-3458 37,-16 37,-98 -2,-110 -5,-387 -10,-772 -14,-1157 171,-11 341,-20 511,-30 13,188 32,375 64,546 10,50 61,41 60,-13 0,-173 -15,-357 -37,-539 43,-2 86,-5 129,-7 70,-4 71,-170 0,-169z"/>
     <path class="fil39" d="M62548 36602c-1,-34 -35,-35 -35,0 -19,1831 31,3701 181,5518 5,57 62,61 60,0 -63,-1840 -143,-3678 -206,-5518z"/>
     <path class="fil40" d="M63039 39131c-13,-660 90,-1759 -102,-2352 -5,-15 -18,-17 -27,-11 -9,7 -18,14 -28,21 -7,5 -9,18 -7,28 2,13 3,25 5,38 4,23 28,18 28,-6 25,920 54,1840 65,2762 5,427 9,854 12,1281 1,214 3,428 4,641 1,107 2,214 2,321 -15,107 1,199 46,278 -17,-5 -36,8 -37,45 -1,52 -3,105 -5,157 -2,81 83,82 83,0 -6,-1068 -18,-2136 -39,-3203z"/>
     <path class="fil41" d="M63428 36325c-2,-37 -38,-38 -38,0 26,2052 44,4140 164,6185 4,66 69,69 69,0 2,-2054 -102,-4136 -195,-6185z"/>
     <path class="fil42" d="M63835 36490c-1,-34 -34,-35 -34,0 4,1962 -11,3951 79,5908 4,74 74,75 75,0 25,-1962 -58,-3948 -120,-5908z"/>
     <path class="fil43" d="M64343 38717c-14,-634 -19,-1270 -47,-1903 -8,-185 26,-357 -73,-464 -5,-5 -11,-1 -14,6 -7,15 -15,31 -22,47 -3,6 0,14 3,18 8,8 15,16 22,23 7,7 15,-9 9,-17 113,143 28,1083 31,1339 8,581 16,1162 25,1744 18,1108 14,2224 64,3330 4,77 79,79 80,0 12,-1372 -46,-2752 -78,-4123z"/>
     <path class="fil44" d="M68155 33711c179,-3 358,-9 536,-19 0,294 -1,589 0,883 -170,47 -340,90 -509,125 -8,-329 -18,-659 -27,-989zm-4 -170c-10,-329 -21,-657 -31,-986 191,-15 383,-31 574,-52 -2,342 -3,683 -3,1025 -180,4 -360,8 -540,13zm-609 4535c5,-284 8,-569 10,-853 186,-26 372,-55 558,-91 5,288 10,577 15,865 -194,23 -389,49 -583,79zm-5 -4519c-163,4 -325,8 -487,12 -3,-313 -6,-624 -9,-936 169,-16 342,-19 500,-27 8,314 4,633 -4,951zm-45 1252c-144,16 -289,26 -433,31 -2,-381 -5,-761 -8,-1142 160,7 320,12 480,14 -11,371 -28,740 -39,1097zm-10 426c-4,285 -9,571 -15,857 -136,19 -271,40 -406,61 1,-397 0,-794 -2,-1192 143,3 286,1 429,-7 -3,94 -5,188 -6,281zm-34 1864c-130,22 -260,41 -391,61 3,-281 3,-562 3,-844 135,-9 269,-20 403,-32 -5,272 -11,543 -15,815zm-11 993c-130,20 -260,42 -389,65 5,-292 6,-585 8,-878 130,-12 260,-25 390,-42 -5,285 -9,570 -9,855zm-404 -6250c130,27 246,53 330,62 47,5 93,11 139,16 17,181 29,366 36,552 -85,14 -170,28 -254,42 -59,10 -147,13 -244,20 -2,-231 -4,-462 -7,-692zm-52 696c-159,14 -332,41 -435,123 -3,-299 -11,-597 -21,-895 152,5 317,36 468,67 -4,235 -8,470 -12,705zm-17 1033c-138,3 -277,5 -416,7 2,-249 1,-497 -1,-745 4,-4 8,-7 12,-11 20,-18 9,-66 -12,-63 0,-1 0,-2 0,-3 126,-65 276,-99 433,-117 -5,311 -11,621 -16,932zm-18 1274c-135,3 -270,2 -406,-5 2,-389 6,-779 8,-1169 138,9 276,17 414,23 -5,384 -12,767 -16,1151zm-12 1329c-132,21 -264,42 -396,64 0,-297 -1,-594 0,-890 0,-139 1,-279 1,-418 135,15 270,24 405,29 -4,405 -8,810 -10,1215zm-396 179c132,-9 264,-18 395,-27 -1,284 -3,569 -3,853 -130,19 -260,35 -391,50 0,-292 0,-584 -1,-876zm0 1902c2,-313 1,-625 1,-937 130,-8 261,-17 391,-28 1,296 2,592 5,887 -133,25 -265,51 -397,78zm1514 -6270c1,137 2,273 3,410 -159,20 -317,45 -475,70 -8,-182 -21,-362 -40,-540 171,18 342,38 512,60zm43 4232c4,253 8,507 12,761 -185,36 -370,70 -555,102 1,-268 1,-536 2,-804 180,-17 361,-37 541,-59zm-18 -1333c5,377 9,754 15,1131 -180,19 -359,40 -538,65 0,-377 1,-754 3,-1129 174,-13 347,-37 520,-67zm-13 -1171c4,336 7,672 11,1007 -172,34 -344,62 -517,82 5,-354 17,-720 26,-1089 160,3 320,2 480,0zm-2 -170c-158,4 -316,9 -474,13 6,-318 8,-637 -3,-952 50,-3 98,-6 144,-12 109,-12 218,-22 327,-31 2,327 3,654 6,982zm613 -1469c9,2 16,0 22,-3 -1,90 -2,180 -2,269 -193,8 -387,23 -580,47 -4,-131 -9,-263 -13,-394 192,25 382,52 573,81zm-50 9466c-104,9 -208,4 -312,-2 -3,-266 -8,-533 -11,-800 131,-9 262,-22 393,-44 -8,278 -12,565 20,832 -30,5 -60,11 -90,14zm-343 -2035c145,-19 288,-59 422,-128 0,276 1,551 1,827 1,116 -3,240 -6,365 -133,22 -266,41 -399,58 -5,-374 -12,-748 -18,-1122zm-2 -127c-6,-395 -14,-790 -21,-1185 149,-22 295,-47 442,-72 1,378 2,757 2,1136 -143,43 -283,87 -423,121zm-42 -2274c154,-32 308,-67 460,-108 1,135 1,271 2,406 0,180 0,359 1,539 -148,11 -297,26 -445,42 -6,-293 -12,-586 -18,-879zm-19 -903c160,-21 318,-48 477,-77 0,246 1,491 2,736 -154,32 -309,62 -463,93 -5,-251 -11,-501 -16,-752zm-33 -1336c169,-33 337,-77 505,-129 1,411 2,822 4,1233 -160,8 -320,18 -480,33 -9,-379 -19,-758 -29,-1137zm-1735 2374c-85,10 -171,22 -256,30 -4,-297 -10,-594 -16,-892 94,-6 188,-13 283,-19 -4,294 -8,587 -11,881zm9065 -4556c-1,-55 -37,-69 -60,-48 -10,-18 -24,-31 -44,-33 -1188,-130 -2408,-32 -3598,56 -149,11 -583,-95 -693,162 -139,327 40,1223 92,1679 -549,-40 -1117,7 -1635,172 -47,-1385 -106,-2766 -187,-4139 -4,-60 -56,-69 -68,-21 -9,-8 -20,-13 -33,-11 -1334,209 -2670,-161 -4002,60 -44,8 -48,104 -7,114 -1,8 -3,15 -2,24 58,1543 120,3086 186,4629 58,1384 16,2933 230,4284 -247,-14 -493,-29 -740,-45 -31,-1250 -73,-2499 -127,-3737 -3,-59 -59,-60 -61,0 -67,2197 -18,4495 137,6681 7,101 106,107 105,0 -10,-934 -28,-1874 -51,-2815 890,163 1789,208 2685,178 2,8 5,16 10,20 130,124 79,1173 89,1406 19,436 40,872 61,1308 6,131 130,133 133,0 2,-51 3,-102 4,-154 1,-24 -5,-44 -14,-58 -28,-548 -56,-1095 -88,-1642 115,0 230,-2 345,-8 6,263 12,526 18,788 -19,-1 -39,-2 -59,-2 0,1 0,2 0,3 -29,0 -39,69 -8,80 23,8 47,14 70,21 9,366 18,731 28,1096 3,94 97,95 96,0 -4,-356 -9,-713 -13,-1069 135,27 282,37 424,20 22,116 52,227 95,329 26,61 102,22 81,-53 -25,-95 -46,-195 -62,-297 93,-21 182,-54 260,-103 34,-21 34,-109 -9,-107 -92,5 -182,28 -273,50 -31,-265 -39,-545 -38,-826 84,-16 166,-33 249,-56 38,-11 30,-112 -10,-105 -79,13 -159,26 -238,39 4,-347 19,-692 18,-1008 -1,-80 -1,-160 -2,-240 8,-17 7,-36 0,-52 -2,-384 -4,-767 -6,-1151 100,-18 202,-33 301,-53 54,-11 58,-137 0,-134 -100,5 -201,11 -302,18 -2,-342 -3,-684 -5,-1025 -1,-268 -2,-535 -3,-802 47,-10 95,-17 142,-27 45,-10 33,-120 -10,-119 -44,0 -89,3 -133,5 -2,-420 -3,-840 -5,-1259 26,-9 52,-15 77,-24 63,-22 36,-165 -26,-147 -17,5 -34,9 -51,14 -2,-288 -4,-576 -6,-864 84,-5 167,-11 251,-18 61,-5 62,-147 0,-146 -84,1 -168,3 -252,5 -2,-344 -6,-688 -10,-1032 39,-5 78,-8 117,-13 61,-9 63,-149 0,-148 -40,0 -79,3 -119,4 -3,-234 -6,-469 -10,-704 -2,-58 -59,-58 -60,0 -1,96 -1,191 -2,286 -6,-5 -14,-9 -23,-10 -192,-22 -385,-40 -577,-59 -4,-128 -8,-256 -12,-384 -1,-36 -37,-37 -37,0 0,127 1,253 2,379 -175,-16 -350,-29 -526,-42 -14,-116 -31,-232 -51,-345 -5,-28 -33,-16 -28,12 18,108 31,219 44,331 -144,-10 -287,-23 -430,-30 -9,0 -18,-1 -27,-2 -1,-100 -2,-201 -3,-301 -1,-30 -30,-30 -31,0 -1,99 -3,198 -5,297 -135,-15 -307,-56 -472,-64 -5,-153 -10,-307 -19,-461 -2,-36 -39,-37 -38,0 5,154 7,307 11,460 -144,0 -278,29 -371,130 -15,16 -2,52 15,38 86,-76 214,-102 357,-103 6,319 11,639 12,958 -2,3 -5,6 -7,10 -11,19 -10,42 0,62 3,5 5,10 8,15 1,256 2,512 1,768 -87,1 -173,4 -260,4 -29,0 -28,65 0,68 86,6 173,12 260,17 -2,390 -5,779 -9,1169 -84,-5 -168,-9 -252,-18 -30,-3 -29,67 0,71 83,13 167,23 251,33 -5,443 -12,886 -18,1328 -96,16 -191,31 -286,47 -40,-1663 -129,-3336 -278,-4946 -2,-22 -25,-17 -25,5 38,2601 140,5244 258,7840 3,63 64,64 65,0 6,-615 5,-1237 -2,-1863 85,-3 170,-7 255,-11 -3,318 -5,635 -6,952 -61,13 -123,25 -184,39 -20,4 -15,55 5,54 59,-2 119,-6 178,-9 0,371 1,742 5,1113 1,76 76,76 77,0 7,-372 11,-745 13,-1118 133,-6 265,-11 398,-21 4,362 9,724 17,1085 2,67 66,67 68,0 11,-364 18,-728 25,-1093 130,-9 260,-22 391,-35 0,229 1,458 5,686 2,75 72,74 75,0 9,-231 16,-463 21,-695 197,-19 394,-44 591,-71 8,399 16,798 25,1197 -135,26 -272,40 -414,33 -24,-2 -23,52 0,56 133,18 274,27 416,20 8,376 16,752 25,1127 -116,13 -232,23 -348,29 -5,-82 -9,-163 -14,-244 -12,-183 15,-504 -105,-588 30,-55 14,-160 -46,-160 -645,-1 -1288,-29 -1931,-66 94,-1435 -91,-3006 -152,-4446 -63,-1489 -123,-2979 -184,-4469 0,-10 -2,-18 -4,-26 1298,-49 2599,260 3893,28 12,-3 22,-10 31,-20 2,3895 175,7831 322,11719 5,116 122,118 119,0 -52,-2538 -95,-5097 -181,-7646 772,96 1547,-99 2325,28 15,3 26,-5 36,-18 83,2528 190,5121 393,7631 7,87 92,93 92,0 -15,-2553 -185,-5206 -413,-7734 -4,-46 -38,-51 -59,-30 -7,-16 -18,-29 -33,-32 -205,-44 -418,-75 -634,-94 -13,-275 -57,-593 -36,-862 41,-506 122,-675 460,-772 391,-113 835,-49 1233,-64 822,-30 1646,21 2467,-24 9,0 16,-3 22,-7 -136,3223 -86,6514 30,9736 4,124 128,126 127,0 -49,-3276 -32,-6553 -75,-9828z"/>
     <path class="fil45" d="M74708 41605c-649,88 -1285,273 -1938,329 -28,2 -28,67 0,67 636,-3 1330,-32 1947,-292 36,-16 30,-110 -9,-104z"/>
     <path class="fil46" d="M74999 40966c-152,29 -2068,372 -2066,330 3,-41 -37,-44 -45,-9 -2,10 -4,21 -7,31 -3,16 3,36 12,44 208,178 697,-2 923,-30 399,-51 802,-115 1193,-246 43,-15 35,-129 -10,-120z"/>
     <path class="fil47" d="M74999 40096c-745,84 -1479,220 -2229,228 -37,1 -37,88 0,89 741,10 1508,-2 2239,-208 39,-11 31,-113 -10,-109z"/>
     <path class="fil48" d="M75105 38909c-729,36 -1465,192 -2190,314 -34,6 -35,86 0,83 730,-74 1476,-119 2201,-279 43,-10 33,-120 -11,-118z"/>
     <path class="fil49" d="M74925 38076c-717,43 -1437,155 -2154,235 -33,3 -34,83 0,81 715,-34 1444,-67 2154,-197 48,-9 51,-122 0,-119z"/>
     <path class="fil50" d="M74889 37297c-752,59 -1512,167 -2260,306 -30,6 -32,77 0,75 752,-48 1512,-130 2260,-258 50,-9 52,-127 0,-123z"/>
     <path class="fil51" d="M74710 36435c-707,27 -1412,117 -2120,138 -25,1 -25,60 0,61 701,26 1424,38 2120,-93 43,-8 46,-107 0,-106z"/>
     <path class="fil52" d="M74531 35652c-688,-89 -1398,-15 -2084,102 -24,4 -25,63 0,61 697,-63 1387,-38 2084,-47 49,0 48,-110 0,-116z"/>
     <path class="fil53" d="M74603 34726c-732,29 -1459,132 -2192,125 -32,-1 -32,75 0,77 727,38 1479,68 2202,-89 42,-10 31,-115 -10,-113z"/>
     <path class="fil54" d="M74926 33723c-1118,-75 -2259,-64 -3377,4 -18,1 -18,40 0,42 1117,104 2258,152 3377,112 66,-2 66,-153 0,-158z"/>
     <path class="fil55" d="M60302 41795c-652,-110 -1453,56 -2085,328 -20,8 -17,59 5,56 684,-80 1410,-145 2087,-308 30,-8 19,-72 -7,-76z"/>
     <path class="fil56" d="M60516 41000c-745,122 -1475,277 -2226,308 -41,1 -41,98 0,99 740,6 1512,-41 2236,-293 41,-14 33,-121 -10,-114z"/>
     <path class="fil57" d="M60543 39963c-742,202 -1461,397 -2217,430 -30,1 -30,71 0,72 741,14 1523,-73 2235,-404 41,-19 24,-110 -18,-98z"/>
     <path class="fil58" d="M60590 38965c-696,99 -1393,233 -2086,369 -40,8 -42,104 0,98 695,-92 1393,-189 2086,-319 61,-11 63,-157 0,-148z"/>
     <path class="fil59" d="M60485 38077c-647,58 -1302,215 -1945,344 -22,5 -24,58 0,56 648,-58 1316,-113 1956,-280 44,-12 34,-125 -11,-120z"/>
     <path class="fil60" d="M60591 37112c-658,-2 -1320,128 -1977,167 -36,2 -37,87 0,86 658,-19 1334,9 1988,-130 46,-10 34,-123 -11,-123z"/>
     <path class="fil61" d="M60482 36314c-361,2 -720,60 -1081,63 -141,1 -433,-115 -540,65 -8,13 -11,33 -4,49 18,47 21,47 58,51 10,1 21,-13 23,-28 2,-8 3,-16 4,-24 2,-10 0,-17 -2,-24 160,0 710,43 779,43 258,-4 518,-7 774,-67 48,-11 35,-128 -11,-128z"/>
     <path class="fil62" d="M60590 35580c-695,-24 -1390,49 -2079,183 0,-2 0,-5 1,-5 19,-10 24,-62 0,-68 -28,-5 -47,10 -60,47 -6,14 -6,32 -1,47 -20,28 -15,90 18,84 707,-115 1410,-149 2121,-138 63,1 63,-148 0,-150z"/>
     <path class="fil63" d="M43021 42366c-583,-87 -1172,-100 -1757,-110 -276,-4 -552,-4 -828,3 -97,2 -859,-51 -888,45 8,-26 -12,-55 -26,-32l-34 53c-16,24 -5,67 18,67 1175,-3 2341,64 3515,123 63,3 61,-140 0,-149z"/>
     <path class="fil64" d="M43057 41578c-1157,-127 -2343,20 -3489,269 -25,6 -19,71 5,67 1165,-188 2315,-196 3484,-196 59,0 58,-133 0,-140z"/>
     <path class="fil65" d="M43162 40636c-1221,68 -2445,214 -3663,350 -22,2 -23,54 0,52 1220,-68 2446,-127 3663,-263 58,-6 59,-142 0,-139z"/>
     <path class="fil66" d="M43310 39562c-1255,40 -2523,300 -3773,469 -28,4 -29,70 0,68 1252,-122 2529,-158 3773,-406 52,-11 56,-133 0,-131z"/>
     <path class="fil67" d="M43163 38779c-1169,-32 -2353,142 -3520,236 -28,2 -28,67 0,66 1168,-44 2357,-11 3520,-180 50,-7 52,-121 0,-122z"/>
     <path class="fil68" d="M43307 38118c-1184,-21 -2372,-22 -3557,22 -12,1 -12,30 0,31 1184,68 2373,90 3557,92 61,0 61,-144 0,-145z"/>
     <path class="fil69" d="M43092 36413c-1077,-121 -2232,-52 -3304,145 -21,4 -23,53 0,52 1095,-4 2210,-15 3304,-84 48,-3 47,-108 0,-113z"/>
     <path class="fil70" d="M33852 41537c-457,101 -895,249 -1360,266 -39,2 -39,95 0,95 450,-4 948,-40 1376,-269 39,-20 23,-100 -16,-92z"/>
     <path class="fil71" d="M33856 40904c-460,73 -896,213 -1364,190 -42,-1 -41,96 0,99 442,38 951,42 1373,-194 30,-18 29,-101 -9,-95z"/>
     <path class="fil72" d="M33851 39600c-442,148 -867,300 -1323,326 -40,2 -41,98 0,97 448,-10 919,-80 1341,-327 38,-23 24,-110 -18,-96z"/>
     <path class="fil73" d="M33923 38665c-527,126 -1042,298 -1574,382 -35,6 -37,89 0,86 526,-40 1089,-123 1592,-367 43,-20 25,-111 -18,-101z"/>
     <path class="fil74" d="M33849 37714c-241,80 -479,165 -724,212 -121,24 -242,42 -365,54 -52,5 -106,9 -159,11 -63,-24 -117,-3 -163,56 4,-18 -1,-42 -17,-41l-32 0c-28,0 -27,62 0,66 480,81 1020,-27 1481,-242 49,-22 29,-133 -21,-116z"/>
     <path class="fil75" d="M33777 36773c-504,105 -991,241 -1500,297 -27,3 -28,62 0,65 483,52 1059,-11 1517,-267 40,-22 24,-104 -17,-95z"/>
     <path class="fil76" d="M33845 35591c-525,160 -1044,329 -1572,467 -43,11 -33,125 10,116 530,-74 1076,-218 1584,-463 50,-24 29,-136 -22,-120z"/>
     <path class="fil77" d="M33716 34812c-476,21 -966,162 -1439,255 -33,7 -35,84 0,82 474,-35 986,-66 1448,-239 36,-13 28,-100 -9,-98z"/>
     <path class="fil78" d="M33609 34062c-329,2 -659,61 -986,101 -113,14 -353,-49 -426,117 -5,12 -3,32 3,42 5,7 10,14 15,21 9,13 22,13 30,0 4,-5 8,-10 11,-16 12,-16 4,-41 -7,-50 65,0 287,15 322,12 104,-9 208,-18 311,-27 243,-22 486,-35 727,-84 46,-10 50,-117 0,-116z"/>
     <path class="fil79" d="M33608 32974c-454,80 -903,115 -1358,166 -32,3 -32,80 0,76l27 -3c14,-2 22,-25 20,-43 43,71 96,97 163,70 70,2 140,2 210,0 104,-3 209,-11 314,-23 213,-24 425,-62 634,-133 39,-14 31,-117 -10,-110z"/>
     <path class="fil80" d="M33426 32121c-385,64 -763,108 -1150,69 -50,-5 -49,113 0,120 388,50 779,46 1161,-71 42,-13 33,-125 -11,-118z"/>
     <path class="fil81" d="M33534 31465c-427,-46 -880,2 -1302,124 -37,11 -29,109 10,104 432,-56 859,-89 1292,-115 48,-3 47,-108 0,-113z"/>
     <path class="fil82" d="M33678 30495c-954,-51 -1920,-12 -2874,64 -41,3 -42,100 0,99 959,-16 1916,-1 2874,-7 66,0 66,-152 0,-156z"/>
     <path class="fil83" d="M33786 29690c-981,-24 -1968,15 -2947,113 -25,3 -26,62 0,61 983,-27 1964,-33 2947,-20 65,1 65,-152 0,-154z"/>
     <path class="fil84" d="M23474 42016c-519,6 -1024,67 -1544,5 -34,-4 -32,71 0,78 501,98 1052,159 1552,13 36,-11 27,-97 -8,-96z"/>
     <path class="fil85" d="M23691 41384c-265,36 -528,119 -793,169 -219,42 -512,-7 -715,102 33,-18 19,-86 -14,-79l-27 7c-14,3 -20,25 -22,43 -1,17 -3,33 -4,50 -1,16 7,34 15,41 154,139 485,0 654,-26 305,-48 618,-97 913,-229 27,-12 23,-82 -7,-78z"/>
     <path class="fil86" d="M23654 40751c-563,71 -1126,159 -1689,233 -27,4 -28,64 0,65 557,29 1151,-30 1698,-198 36,-11 28,-104 -9,-100z"/>
     <path class="fil87" d="M23760 39793c-587,79 -1172,222 -1758,319 -28,5 -29,71 0,68 587,-61 1188,-120 1768,-282 38,-10 30,-110 -10,-105z"/>
     <path class="fil88" d="M23762 39032c-574,4 -1153,116 -1725,182 -37,4 -38,92 0,90 572,-46 1156,-47 1725,-154 47,-9 50,-118 0,-118z"/>
     <path class="fil89" d="M23730 38071c-555,94 -1098,195 -1657,190 -41,-1 -41,95 0,97 553,20 1123,0 1667,-171 41,-13 33,-123 -10,-116z"/>
     <path class="fil90" d="M23690 37038c-566,116 -1118,215 -1690,193 -44,-2 -44,103 0,106 566,38 1146,13 1700,-180 43,-14 34,-128 -10,-119z"/>
     <path class="fil91" d="M23546 36104c-492,53 -994,176 -1480,302 -35,9 -28,101 8,96 492,-66 997,-140 1483,-279 43,-13 34,-124 -11,-119z"/>
     <path class="fil92" d="M23582 35387c-487,-26 -987,21 -1473,67 -40,4 -41,96 0,97 487,9 988,20 1473,-43 50,-6 51,-118 0,-121z"/>
     <path class="fil93" d="M23498 34378c-550,147 -1082,274 -1641,264 -39,-1 -39,91 0,93 553,33 1126,-8 1662,-240 49,-21 28,-130 -21,-117z"/>
     <path class="fil94" d="M23437 33496c-548,32 -1107,152 -1651,262 -30,6 -32,78 0,75 550,-51 1116,-97 1661,-225 42,-10 32,-115 -10,-112z"/>
     <path class="fil95" d="M23368 32593c-503,47 -1006,159 -1511,212 -37,4 -38,90 0,91 497,8 1035,-20 1521,-197 38,-13 30,-110 -10,-106z"/>
     <path class="fil96" d="M23258 31887c-453,-26 -912,6 -1365,28 -37,2 -37,88 0,89 453,13 913,38 1365,3 50,-4 51,-117 0,-120z"/>
     <path class="fil97" d="M23258 31022c-527,19 -1055,113 -1581,179 -31,4 -31,77 0,75 526,-45 1058,-63 1581,-155 40,-7 42,-100 0,-99z"/>
     <path class="fil98" d="M23475 30161c-933,-4 -1870,71 -2803,109 -29,1 -30,69 0,70 931,17 1872,44 2803,-33 60,-5 61,-145 0,-146z"/>
     <path class="fil99" d="M16260 30431c-577,-137 -1166,-83 -1741,58 -36,9 -28,108 9,101 578,-113 1144,-99 1724,-63 35,2 44,-88 8,-96z"/>
     <path class="fil100" d="M16683 30984c-692,-26 -1394,54 -2083,128 -33,4 -33,79 0,78 692,-25 1392,-22 2083,-101 43,-5 44,-103 0,-105z"/>
     <path class="fil101" d="M16468 32074c-650,-19 -1297,-51 -1944,-155 -30,-5 -29,66 0,71 645,122 1293,197 1944,169 35,-1 35,-84 0,-85z"/>
     <path class="fil102" d="M16288 32801c-560,-38 -1128,-46 -1689,-14 -34,2 -34,79 0,82 560,46 1129,53 1689,29 41,-2 40,-94 0,-97z"/>
     <path class="fil103" d="M16324 33682c-607,-89 -1223,-74 -1832,-42 -33,1 -33,79 0,78 612,-20 1220,28 1832,53 38,2 37,-84 0,-89z"/>
     <path class="fil104" d="M16359 34446c-602,54 -1194,93 -1797,40 -33,-3 -32,73 0,78 596,82 1204,103 1797,-17 41,-9 43,-104 0,-101z"/>
     <path class="fil105" d="M16324 35331c-589,44 -1172,66 -1761,20 -37,-3 -37,84 0,88 585,69 1176,84 1761,-1 44,-6 45,-111 0,-107z"/>
     <path class="fil106" d="M16359 36062c-331,48 -662,81 -995,73 -158,-3 -463,-138 -601,-11 -10,9 -14,27 -12,44 3,15 5,29 7,44 4,22 18,31 32,27 7,-2 15,-4 22,-5 27,-7 17,-64 -6,-68 523,84 1039,92 1560,-28 28,-6 22,-81 -7,-76z"/>
     <path class="fil107" d="M16250 36969c-515,43 -1027,105 -1543,108 -36,1 -36,86 0,87 514,5 1033,-7 1543,-112 33,-7 36,-86 0,-83z"/>
     <path class="fil108" d="M16395 37916c-573,23 -1152,96 -1722,182 -26,3 -27,63 0,62 572,-28 1152,-69 1722,-159 34,-5 36,-86 0,-85z"/>
     <path class="fil109" d="M16505 38674c-601,103 -1192,186 -1798,158 -25,-2 -25,57 0,59 602,48 1211,32 1805,-136 30,-9 23,-87 -7,-81z"/>
     <path class="fil110" d="M16539 39429c-564,93 -1122,219 -1688,279 -37,4 -38,92 0,90 565,-36 1142,-102 1695,-293 27,-9 22,-81 -7,-76z"/>
     <path class="fil111" d="M16638 40298c-573,136 -1138,206 -1717,158 -39,-4 -38,88 0,92 582,60 1161,24 1732,-163 38,-13 21,-95 -15,-87z"/>
     <path class="fil112" d="M16610 41281c-584,84 -1143,119 -1727,12 -28,-5 -35,69 -7,76 572,143 1171,179 1743,15 37,-10 29,-108 -9,-103z"/>
    </g>
   </g>
  </g>
  <polygon class="fil1" points="0,0 75591,0 75591,42520 0,42520 "/>
 </g>
</svg>
