<?xml version="1.0" encoding="UTF-8"?>
<!DOCTYPE svg PUBLIC "-//W3C//DTD SVG 1.1//EN" "http://www.w3.org/Graphics/SVG/1.1/DTD/svg11.dtd">
<!-- Creator: CorelDRAW X7 -->
<svg xmlns="http://www.w3.org/2000/svg" xml:space="preserve" width="8.5in" height="11in" version="1.1" style="shape-rendering:geometricPrecision; text-rendering:geometricPrecision; image-rendering:optimizeQuality; fill-rule:evenodd; clip-rule:evenodd"
viewBox="0 0 8500 11000"
 xmlns:xlink="http://www.w3.org/1999/xlink">
 <defs>
  <style type="text/css">
   <![CDATA[
    .fil3 {fill:#004F9E;fill-rule:nonzero}
    .fil0 {fill:#BAD051;fill-rule:nonzero}
    .fil2 {fill:#F29100;fill-rule:nonzero}
    .fil1 {fill:white;fill-rule:nonzero}
   ]]>
  </style>
 </defs>
 <g id="Layer_x0020_1">
  <metadata id="CorelCorpID_0Corel-Layer"/>
  <path class="fil0" d="M3242 1326l0 512c0,84 3,162 41,229 11,19 24,38 39,52 49,47 93,65 164,65l521 0c101,0 187,-53 224,-165 10,-30 18,-82 18,-125l0 -624c0,-48 -9,-99 -21,-133 -25,-72 -81,-128 -146,-146 -35,-10 -80,-13 -122,-13l-427 0c-131,0 -197,24 -256,129 -10,19 -15,37 -21,61 -11,42 -14,104 -14,158z"/>
  <path class="fil1" d="M3525 1663c0,93 25,158 67,208 101,122 290,104 360,-54 9,-20 16,-43 20,-68 13,-88 18,-155 -8,-239 -20,-63 -56,-119 -87,-172 -11,-18 -22,-34 -33,-52 -21,-33 -41,-73 -58,-115 -25,-63 -22,-90 -29,-150 -26,23 -21,20 -37,39 -121,142 -195,402 -195,603z"/>
  <path class="fil2" d="M3683 1209c0,68 16,104 42,158 16,32 56,92 56,131 0,90 -73,88 -73,-4 0,-26 6,-37 10,-58 -18,9 -36,35 -46,55 -25,54 -22,129 -1,184 11,31 22,40 42,59 -38,-1 -62,-47 -73,-85 -31,-98 -16,-245 -11,-347l-8 17c-61,141 -119,393 -18,520 19,25 29,35 63,52 58,29 122,32 180,-1 22,-13 48,-36 60,-53 48,-67 63,-158 51,-250 -2,-9 -3,-17 -5,-26 -3,-16 -2,-19 -7,-26 -1,31 3,102 -36,98 -44,-4 -57,-99 -63,-142 -1,-9 -1,-15 -5,-22 -1,78 -3,182 -45,223 -47,46 -114,-28 -111,-125l2 -25c31,129 134,116 134,-11 0,-30 -10,-64 -20,-88 -23,-58 -92,-124 -82,-231 6,19 17,37 25,50 6,8 12,14 17,22 44,67 108,132 116,238 2,25 2,51 15,65 30,34 61,-66 15,-167 -47,-102 -171,-164 -165,-320l3 -45c-23,19 -62,102 -62,154z"/>
  <path class="fil3" d="M3466 1991c2,7 -1,2 3,5 5,4 12,1 9,23 -2,14 -11,77 -19,84 -8,9 -7,-4 -7,13l40 0c0,-20 -4,-1 -13,-16 -6,-10 7,-71 8,-75 11,25 30,66 36,91l12 0c7,-36 24,-63 36,-93 4,13 12,65 8,78 -11,12 -13,-2 -14,15l63 0c0,-16 1,-6 -8,-13 -8,-6 -8,-27 -12,-49 -2,-14 -10,-45 -4,-53 4,-5 4,-2 6,-4 4,-3 7,-1 6,-10l-47 0c-1,25 -19,60 -29,81 -10,-19 -26,-58 -29,-81l-35 0c-15,0 -7,1 -10,4z"/>
  <path class="fil3" d="M3846 2118c18,0 42,0 58,-10l1 -41c9,-9 11,-1 13,-12 -6,-7 -21,-4 -29,-4 -11,0 -22,0 -33,0 2,14 3,9 13,13 4,15 3,20 3,35 0,15 -58,26 -58,-51 0,-59 46,-72 74,-28 6,8 3,6 15,6l-2 -30c-23,-19 -118,-24 -121,54 -2,45 29,68 66,68z"/>
  <path class="fil3" d="M3633 1989c1,12 8,9 17,17 1,12 4,86 -2,95 -9,12 -14,-5 -15,15 11,0 42,3 48,-2 -1,-19 -17,6 -20,-34 -1,-19 -1,-41 -2,-61 8,5 61,71 68,79 9,13 10,20 28,20 2,-10 -2,-44 -2,-59 -1,-16 -5,-44 2,-55 8,-14 14,2 12,-17l-45 0c-2,20 16,-2 19,30 2,15 2,34 2,49 -17,-16 -59,-76 -67,-79 -8,-2 -37,-2 -43,2z"/>
  <path class="fil3" d="M3927 1991c3,13 13,1 14,21l0 80c-2,25 -13,4 -14,22 8,6 92,2 109,2l5 -32c-23,-1 -11,8 -33,19 -45,21 -34,-31 -35,-70 0,-55 15,-27 17,-42l-50 -4c-19,0 -11,1 -13,4z"/>
 </g>
</svg>
